<svg xmlns="http://www.w3.org/2000/svg" xmlns:xlink="http://www.w3.org/1999/xlink" width="1080" zoomAndPan="magnify" viewBox="0 0 810 1012.49997" height="1350" preserveAspectRatio="xMidYMid meet" version="1.0"><defs><clipPath id="caf9752ccb"><path d="M 17.804688 948 L 804.769531 948 L 804.769531 1011.8125 L 17.804688 1011.8125 Z M 17.804688 948 " clip-rule="nonzero"/></clipPath></defs><path fill="#edf8ff" d="M 789.878906 977.230469 L 507.507812 977.230469 C 523.773438 972.839844 535.734375 957.984375 535.734375 940.328125 L 535.746094 827.335938 C 536.832031 825.320312 537.890625 823.28125 538.90625 821.203125 C 549.453125 799.707031 556.359375 774.222656 560.351562 741.796875 C 570.953125 742.972656 583.300781 743.304688 589.484375 743.304688 C 590.808594 743.304688 591.855469 743.289062 592.53125 743.257812 C 601.042969 742.9375 615.644531 743.171875 624.109375 735.800781 C 626.113281 734.058594 638.664062 719.550781 639.90625 717.292969 L 625.753906 696.28125 C 624.726562 697.839844 613.414062 713.640625 609.730469 716.410156 C 603.855469 720.796875 596.535156 721.867188 589.460938 722.929688 C 580.238281 724.316406 570.925781 724.878906 561.605469 725.171875 C 561.308594 724.097656 560.773438 723.097656 560.027344 722.25 C 558.679688 720.710938 556.738281 719.792969 554.699219 719.710938 C 546.347656 719.402344 539.257812 713.949219 535.753906 706.074219 L 535.757812 594.085938 C 650.527344 608.71875 646.980469 726.816406 669.105469 758.667969 C 687.503906 785.136719 733.226562 759.019531 775.054688 824.789062 C 809.558594 879.046875 789.878906 977.230469 789.878906 977.230469 M 267.179688 977.230469 L 29.074219 977.230469 C 29.074219 977.230469 0.503906 740.707031 161.101562 690.535156 C 182.898438 683.726562 202.394531 681.121094 219.964844 681.121094 C 226.546875 681.121094 232.859375 681.488281 238.914062 682.132812 L 238.894531 940.3125 C 238.894531 957.984375 250.886719 972.851562 267.179688 977.230469 " fill-opacity="1" fill-rule="nonzero"/><g clip-path="url(#caf9752ccb)"><path fill="#c5eae2" d="M 804.769531 980.113281 C 804.769531 997.636719 628.597656 1011.832031 411.285156 1011.832031 C 193.976562 1011.832031 17.804688 997.636719 17.804688 980.113281 C 17.804688 962.605469 193.976562 948.398438 411.285156 948.398438 C 628.597656 948.398438 804.769531 962.605469 804.769531 980.113281 " fill-opacity="1" fill-rule="nonzero"/></g><path fill="#a2ddd0" d="M 65.632812 978.203125 C 65.632812 978.203125 96.828125 921.101562 76.121094 913.835938 C 62.4375 909.035156 57.988281 962.441406 57.988281 962.441406 C 57.988281 962.441406 56.769531 903.234375 38.613281 910.8125 C 24.90625 916.523438 43.210938 959.265625 43.210938 959.265625 C 43.210938 959.265625 23.328125 943.136719 20.816406 953.269531 C 16.828125 969.363281 39.71875 978.496094 39.71875 978.496094 L 65.632812 978.203125 " fill-opacity="1" fill-rule="nonzero"/><path fill="#e0fbf0" d="M 59.214844 978.277344 L 74.3125 930.957031 C 74.398438 930.699219 74.253906 930.421875 73.992188 930.335938 C 73.726562 930.253906 73.449219 930.398438 73.371094 930.65625 L 58.167969 978.289062 L 59.214844 978.277344 " fill-opacity="1" fill-rule="nonzero"/><path fill="#e0fbf0" d="M 55.285156 978.316406 L 44.460938 926.742188 C 44.402344 926.46875 44.136719 926.296875 43.878906 926.359375 C 43.605469 926.417969 43.433594 926.679688 43.488281 926.9375 L 54.273438 978.328125 L 55.285156 978.316406 " fill-opacity="1" fill-rule="nonzero"/><path fill="#e0fbf0" d="M 49.71875 978.382812 L 29.152344 960.691406 C 28.945312 960.511719 28.632812 960.535156 28.453125 960.746094 C 28.277344 960.953125 28.300781 961.265625 28.507812 961.4375 L 48.214844 978.398438 L 49.71875 978.382812 " fill-opacity="1" fill-rule="nonzero"/><path fill="#a2ddd0" d="M 740.558594 976.34375 C 740.558594 976.34375 714.574219 937.839844 731.136719 923.089844 C 741.289062 914.039062 746.25 943.003906 746.25 943.003906 C 746.25 943.003906 752.011719 887.734375 770.734375 899.398438 C 779.882812 905.101562 760.65625 956.066406 760.65625 956.066406 C 760.65625 956.066406 774.328125 929.558594 785.132812 936.839844 C 802.566406 948.589844 761.019531 975.949219 761.019531 975.949219 L 740.558594 976.34375 " fill-opacity="1" fill-rule="nonzero"/><path fill="#e0fbf0" d="M 750.457031 976.152344 L 763.890625 913.558594 C 763.960938 913.21875 763.742188 912.875 763.394531 912.796875 C 763.046875 912.726562 762.714844 912.945312 762.636719 913.285156 L 749.140625 976.175781 L 750.457031 976.152344 " fill-opacity="1" fill-rule="nonzero"/><path fill="#e0fbf0" d="M 757.605469 976.019531 L 782.34375 945.96875 C 782.566406 945.691406 782.53125 945.292969 782.261719 945.066406 C 781.976562 944.839844 781.578125 944.882812 781.355469 945.152344 L 755.917969 976.046875 L 757.605469 976.019531 " fill-opacity="1" fill-rule="nonzero"/><path fill="#e0fbf0" d="M 745.886719 976.242188 L 735.710938 930.386719 C 735.640625 930.035156 735.308594 929.820312 734.953125 929.894531 C 734.609375 929.96875 734.386719 930.316406 734.46875 930.664062 L 744.582031 976.265625 L 745.886719 976.242188 " fill-opacity="1" fill-rule="nonzero"/><path fill="#dbf1ff" d="M 421.058594 268.277344 C 420.984375 266.199219 420.519531 264.089844 419.640625 262.195312 C 418.960938 260.699219 418.03125 259.320312 416.644531 258.394531 C 411.90625 255.238281 404.203125 257.34375 401.9375 262.609375 C 401.6875 263.125 400.960938 262.675781 401.179688 262.167969 C 402.398438 259.648438 402.574219 256.683594 402.035156 253.964844 C 401.554688 251.519531 400.503906 249.132812 398.800781 247.296875 C 396.839844 245.175781 394.148438 244.136719 391.269531 244.316406 C 388.046875 244.519531 384.949219 246.101562 382.546875 248.191406 C 381.449219 249.152344 380.378906 250.179688 379.453125 251.3125 C 378.8125 252.089844 378.21875 252.96875 377.84375 253.917969 C 377.726562 254.472656 377.597656 255.019531 377.441406 255.5625 C 377.308594 256.019531 376.535156 255.949219 376.582031 255.441406 L 376.59375 255.332031 L 376.597656 255.316406 C 376.664062 254.773438 376.796875 254.246094 376.980469 253.75 C 377.90625 249.128906 377.234375 244.152344 375.558594 239.785156 C 373.929688 235.5625 371.035156 231.402344 366.71875 229.621094 C 362.03125 227.683594 356.605469 229.042969 353.019531 232.511719 C 349.15625 236.257812 347.175781 241.675781 346.105469 246.835938 C 345.496094 249.820312 345.136719 252.871094 345.414062 255.914062 C 345.753906 259.671875 346.800781 263.320312 346.972656 267.09375 C 346.996094 267.421875 346.597656 267.644531 346.316406 267.476562 C 344.953125 266.625 343.546875 265.753906 341.992188 265.304688 C 340.382812 264.828125 338.738281 264.960938 337.230469 265.714844 C 334.792969 266.925781 332.417969 270.0625 332.957031 272.910156 C 333.046875 273.398438 332.425781 273.691406 332.152344 273.253906 C 330.898438 271.214844 329.511719 269.226562 327.800781 267.535156 C 326.320312 266.066406 324.507812 264.742188 322.398438 264.40625 C 320.144531 264.042969 317.898438 265.019531 316.273438 266.5625 C 313.039062 269.636719 311.839844 274.882812 313.75 278.972656 L 418 278.972656 C 420.070312 275.816406 421.207031 272.066406 421.058594 268.277344 " fill-opacity="1" fill-rule="nonzero"/><path fill="#dbf1ff" d="M 562.945312 342.761719 C 561.472656 338.339844 562.074219 332.257812 566.65625 329.914062 C 570.359375 328.019531 574.917969 329.425781 576.773438 333.148438 C 577.089844 333.789062 578.015625 333.234375 577.71875 332.605469 C 576.050781 329.027344 574.601562 323.425781 579.128906 321.265625 C 582.722656 319.550781 587.226562 322.199219 589.421875 325.28125 C 589.628906 325.601562 589.820312 325.945312 590.046875 326.257812 C 590.449219 326.832031 591.332031 326.332031 591 325.707031 C 587.207031 320.253906 585.273438 313.328125 585.15625 306.730469 C 585.054688 300.90625 586.542969 294.660156 591.109375 290.699219 C 595.90625 286.546875 602.976562 285.859375 608.679688 288.386719 C 614.714844 291.070312 619.25 296.476562 622.324219 302.183594 C 625.320312 307.742188 627.351562 314.234375 626.980469 320.605469 C 626.945312 321.21875 627.953125 321.355469 628.054688 320.75 C 628.632812 317.625 629.429688 314.472656 630.886719 311.628906 C 632.144531 309.183594 633.921875 306.976562 636.394531 305.695312 C 638.847656 304.414062 641.714844 304.210938 644.394531 304.773438 C 649.175781 305.753906 654.507812 309.074219 655.84375 314.027344 C 655.9375 314.605469 656.027344 315.175781 656.15625 315.734375 C 656.289062 316.335938 657.289062 316.210938 657.234375 315.589844 L 657.21875 315.453125 L 657.195312 315.347656 C 657.148438 314.914062 657.074219 314.492188 656.96875 314.082031 C 656.035156 308.464844 656.90625 302.53125 659.414062 297.421875 C 661.691406 292.789062 665.417969 288.675781 670.328125 286.804688 C 675.847656 284.707031 682.082031 285.738281 687.070312 288.734375 C 692.402344 291.933594 696.113281 297.371094 697.160156 303.488281 C 698.488281 311.242188 694.617188 318.175781 692.027344 325.199219 C 691.867188 325.636719 692.449219 326.09375 692.832031 325.828125 C 696.203125 323.417969 700.289062 321.867188 704.148438 324.238281 C 707.304688 326.175781 708.863281 330.058594 707.207031 333.496094 C 706.90625 334.128906 707.855469 334.683594 708.15625 334.050781 C 709.402344 331.445312 711.351562 329.109375 714.148438 328.121094 C 718.464844 326.609375 723.289062 328.496094 726.355469 331.664062 C 729.738281 335.160156 730.777344 340.136719 728.59375 344.527344 L 563.585938 344.34375 C 563.34375 343.828125 563.125 343.304688 562.945312 342.761719 " fill-opacity="1" fill-rule="nonzero"/><path fill="#dbf1ff" d="M 60.714844 336.808594 C 58.113281 332.703125 56.941406 327.910156 57.519531 323.054688 C 58.027344 318.746094 60.328125 314.308594 64.640625 312.8125 C 70.988281 310.601562 80.945312 313.476562 82.769531 320.679688 C 83.046875 321.519531 84.300781 321.171875 84.09375 320.316406 C 82.9375 316.769531 82.441406 312.820312 83.113281 309.128906 C 83.683594 305.933594 85.257812 302.898438 88.300781 301.5 C 91.050781 300.230469 94.300781 300.449219 97.148438 301.230469 C 101.921875 302.523438 107.46875 305.863281 109.652344 310.664062 C 109.878906 311.445312 110.136719 312.210938 110.410156 312.96875 C 110.714844 313.785156 111.898438 313.472656 111.71875 312.597656 C 111.566406 311.808594 111.300781 311.050781 110.980469 310.328125 C 109.738281 306.058594 109.328125 301.535156 109.785156 297.109375 C 110.253906 292.519531 111.742188 287.851562 114.648438 284.222656 C 117.921875 280.160156 122.769531 277.851562 127.933594 277.554688 C 133.949219 277.222656 140.0625 279.253906 145.003906 282.675781 C 147.285156 284.261719 149.511719 286.078125 151.371094 288.152344 C 152.410156 289.3125 153.398438 290.636719 154.070312 292.066406 C 154.253906 293.449219 154.554688 294.8125 154.996094 296.136719 C 155.25 296.867188 156.316406 296.742188 156.339844 295.949219 C 156.382812 294.460938 156.011719 293.042969 155.398438 291.714844 C 154.609375 285.34375 156.460938 278.492188 159.183594 272.90625 C 162.183594 266.777344 167.078125 260.59375 173.882812 258.671875 C 180.839844 256.707031 187.84375 260.347656 192.484375 265.453125 C 197.730469 271.257812 200.757812 278.960938 202.480469 286.515625 C 204.128906 293.824219 204.75 301.691406 203.300781 309.09375 C 203.140625 309.953125 204.382812 310.324219 204.625 309.457031 C 206.171875 303.835938 208.433594 298.261719 211.894531 293.53125 C 214.765625 289.59375 218.828125 286.164062 223.824219 285.660156 C 229.296875 285.105469 234.984375 287.78125 238.636719 291.800781 C 245.910156 299.78125 244.820312 312.363281 240.074219 321.324219 C 239.648438 322.121094 240.722656 322.699219 241.246094 322.011719 C 243.265625 319.351562 246.0625 317.300781 249.394531 316.769531 C 254.421875 315.949219 259.644531 318.699219 262.4375 322.871094 C 263.800781 324.910156 264.617188 327.308594 264.515625 329.78125 C 264.40625 332.667969 263.019531 335.246094 261.078125 337.300781 C 260.941406 337.464844 260.882812 337.636719 260.894531 337.796875 L 61.375 337.796875 C 61.160156 337.46875 60.921875 337.152344 60.714844 336.808594 " fill-opacity="1" fill-rule="nonzero"/><path fill="#a2ddd0" d="M 163.050781 429.65625 C 146.917969 431.441406 130.839844 432.417969 114.707031 432.140625 C 113.101562 432.128906 112.074219 434.101562 112.785156 435.527344 C 120.394531 450.976562 128.003906 466.40625 135.625 481.824219 C 141.925781 494.574219 153.832031 511.378906 171.410156 524.851562 C 192.601562 541.082031 221.578125 546.582031 247.898438 534.9375 C 270.894531 524.746094 266.09375 498.148438 259.316406 478.582031 C 250.96875 454.457031 227.96875 441.085938 206.21875 433.308594 C 192.078125 428.253906 178.03125 427.949219 163.050781 429.65625 " fill-opacity="1" fill-rule="nonzero"/><path fill="#e0fbf0" d="M 114.171875 434.480469 C 123.371094 440.738281 132.613281 447.027344 142.601562 451.957031 C 143.421875 452.371094 144.257812 452.742188 145.097656 453.136719 C 141.929688 452.960938 138.773438 452.800781 135.625 452.78125 C 131.628906 452.765625 127.691406 453.28125 123.960938 454.71875 C 122.726562 455.199219 123.25 457.214844 124.496094 456.710938 C 128.195312 455.285156 132.042969 454.804688 135.988281 454.855469 C 140.566406 454.933594 145.140625 455.230469 149.695312 455.410156 C 149.910156 455.445312 150.070312 455.375 150.203125 455.324219 C 157.613281 458.277344 165.246094 460.605469 172.640625 463.625 C 180.582031 466.855469 188.183594 470.8125 195.550781 475.175781 C 187.429688 480.640625 176.144531 479.511719 166.835938 479.605469 C 161.171875 479.675781 155.527344 479.710938 149.875 479.785156 C 145.523438 479.835938 141.027344 479.917969 137.660156 483.011719 C 136.675781 483.925781 138.164062 485.375 139.144531 484.480469 C 143.132812 480.800781 150.082031 481.851562 155.070312 481.8125 C 160.882812 481.742188 166.691406 481.695312 172.496094 481.621094 C 181.070312 481.535156 190.269531 481.511719 197.464844 476.300781 C 208.171875 482.777344 218.390625 490.054688 228.519531 497.324219 C 231.847656 499.699219 235.1875 502.105469 238.480469 504.566406 C 212.453125 514.742188 183.9375 516.425781 157.035156 508.582031 C 155.757812 508.195312 155.25 510.21875 156.527344 510.597656 C 184.199219 518.6875 213.714844 516.792969 240.394531 506.046875 C 247.050781 511.152344 253.417969 516.625 258.945312 523.007812 C 259.8125 524.023438 261.269531 522.539062 260.390625 521.527344 C 258.351562 519.164062 256.195312 516.929688 253.960938 514.804688 L 253.949219 514.597656 C 252.117188 501.207031 248.625 488.125 243.386719 475.652344 C 238.152344 463.203125 231.523438 448.992188 220.128906 441.085938 C 219.023438 440.308594 218.019531 442.140625 219.117188 442.898438 C 225.195312 447.121094 229.394531 453.203125 233.054688 459.523438 C 236.332031 465.15625 239.230469 471.019531 241.734375 477.046875 C 246.464844 488.457031 249.730469 500.386719 251.554688 512.570312 C 248.378906 509.6875 245.042969 506.988281 241.640625 504.382812 C 241.523438 503.972656 241.21875 503.6875 240.773438 503.71875 C 238.949219 502.332031 237.117188 500.984375 235.261719 499.628906 C 231.464844 496.878906 227.644531 494.132812 223.824219 491.40625 C 221.496094 481.171875 217.960938 471.628906 212.851562 462.441406 C 207.183594 452.246094 201.238281 442.1875 195.429688 432.054688 C 194.765625 430.90625 192.976562 431.945312 193.640625 433.09375 C 199.257812 442.894531 204.953125 452.621094 210.484375 462.453125 C 215.34375 471.105469 218.875 480.015625 221.242188 489.570312 C 216.71875 486.394531 212.152344 483.261719 207.527344 480.21875 C 204.628906 478.316406 201.679688 476.445312 198.71875 474.660156 C 198.539062 474.203125 198.03125 473.863281 197.484375 473.910156 C 191.792969 470.523438 185.941406 467.351562 179.921875 464.574219 L 179.875 464.488281 C 175.953125 458.941406 175.207031 452.136719 172.773438 445.929688 C 170.152344 439.289062 165.359375 434.746094 159.871094 430.363281 C 158.835938 429.535156 157.359375 431.019531 158.421875 431.847656 C 161.175781 434.03125 163.980469 436.25 166.269531 438.941406 C 168.589844 441.679688 170.230469 444.8125 171.40625 448.191406 C 173.109375 453.160156 174.105469 458.425781 176.582031 463.09375 C 167.125 459.050781 157.171875 456.308594 147.765625 452.113281 C 136.175781 446.953125 125.636719 439.773438 115.183594 432.683594 C 114.085938 431.921875 113.0625 433.742188 114.171875 434.480469 " fill-opacity="1" fill-rule="nonzero"/><path fill="#a2ddd0" d="M 586.648438 498.722656 C 575.3125 489.871094 560.617188 482.214844 545.128906 485.863281 C 532.574219 488.824219 516.972656 495.132812 519.265625 510.640625 C 521.894531 528.367188 534.457031 541.777344 550.046875 547.519531 C 562.996094 552.277344 575.796875 552.957031 584.621094 552.011719 C 595.273438 550.886719 605.929688 549.761719 616.589844 548.628906 C 617.574219 548.511719 618.273438 547.3125 617.734375 546.480469 C 612.210938 538.089844 607.367188 529.308594 602.953125 520.207031 C 598.851562 511.765625 594.019531 504.46875 586.648438 498.722656 " fill-opacity="1" fill-rule="nonzero"/><path fill="#e0fbf0" d="M 616.671875 547.542969 C 610.320312 544.792969 603.9375 542.023438 598.011719 538.402344 C 597.527344 538.097656 597.042969 537.789062 596.5625 537.484375 C 597.707031 539.089844 598.839844 540.707031 599.910156 542.347656 C 601.242188 544.445312 602.277344 546.6875 602.761719 549.128906 C 602.917969 549.941406 601.6875 550.320312 601.539062 549.507812 C 601.058594 547.078125 600.03125 544.90625 598.691406 542.851562 C 597.125 540.460938 595.449219 538.160156 593.824219 535.820312 L 593.707031 535.515625 C 589.691406 532.609375 585.917969 529.367188 581.878906 526.480469 C 577.523438 523.382812 572.917969 520.691406 568.167969 518.257812 C 567.988281 524.363281 572.339844 529.921875 575.386719 534.875 C 577.242188 537.855469 579.09375 540.851562 580.945312 543.839844 C 582.367188 546.144531 583.816406 548.542969 583.308594 551.34375 C 583.167969 552.167969 581.902344 551.863281 582.058594 551.054688 C 582.65625 547.722656 579.789062 544.429688 578.152344 541.78125 C 576.246094 538.703125 574.339844 535.628906 572.433594 532.550781 C 569.628906 528.011719 566.589844 523.167969 566.921875 517.640625 C 559.957031 514.179688 552.710938 511.214844 545.523438 508.3125 C 543.160156 507.351562 540.789062 506.386719 538.398438 505.484375 C 541.710938 522.550781 550.300781 538.125 563.402344 549.667969 C 564.03125 550.21875 563.140625 551.148438 562.515625 550.609375 C 549.03125 538.738281 540.214844 522.585938 536.984375 504.960938 C 532.078125 503.15625 527.085938 501.628906 521.878906 500.859375 C 521.058594 500.726562 521.359375 499.472656 522.171875 499.597656 C 524.097656 499.875 525.988281 500.273438 527.851562 500.730469 L 527.964844 500.679688 C 535.621094 497.179688 543.667969 494.671875 551.984375 493.269531 C 560.285156 491.875 569.964844 490.628906 577.921875 493.996094 C 578.679688 494.324219 578.0625 495.453125 577.304688 495.132812 C 573.058594 493.335938 568.457031 493.15625 563.914062 493.335938 C 559.855469 493.492188 555.804688 493.921875 551.796875 494.601562 C 544.234375 495.90625 536.851562 498.160156 529.824219 501.257812 C 532.402344 501.980469 534.9375 502.828125 537.433594 503.757812 C 537.6875 503.679688 537.953125 503.742188 538.082031 503.988281 C 539.421875 504.480469 540.734375 505.007812 542.0625 505.527344 C 544.777344 506.613281 547.492188 507.703125 550.199219 508.808594 C 556.351562 506.625 562.570312 505.300781 569.109375 504.929688 C 576.355469 504.515625 583.636719 504.300781 590.902344 503.964844 C 591.726562 503.945312 591.777344 505.230469 590.941406 505.277344 C 583.921875 505.574219 576.90625 505.816406 569.878906 506.183594 C 563.714844 506.507812 557.84375 507.617188 552.023438 509.554688 C 555.203125 510.875 558.375 512.234375 561.527344 513.65625 C 563.488281 514.550781 565.445312 515.472656 567.382812 516.4375 C 567.671875 516.375 568.035156 516.53125 568.179688 516.832031 C 571.867188 518.722656 575.476562 520.71875 578.945312 522.960938 L 579.015625 522.960938 C 583.234375 523.179688 587.074219 521.308594 591.125 520.523438 C 595.511719 519.679688 599.503906 520.683594 603.628906 522.128906 C 604.40625 522.402344 604.117188 523.667969 603.335938 523.382812 C 601.261719 522.667969 599.164062 521.933594 596.980469 521.625 C 594.773438 521.316406 592.570312 521.488281 590.410156 522.003906 C 587.226562 522.746094 584.121094 523.984375 580.847656 524.226562 C 586.121094 527.859375 590.882812 532.179688 596.214844 535.726562 C 602.792969 540.105469 610.066406 543.285156 617.289062 546.410156 C 618.054688 546.746094 617.441406 547.878906 616.671875 547.542969 " fill-opacity="1" fill-rule="nonzero"/><path fill="#a2ddd0" d="M 613.890625 459.078125 C 621.859375 452.792969 628.582031 444.914062 632.890625 434.898438 C 637.375 424.488281 639.386719 412.910156 641.339844 401.472656 C 641.644531 399.679688 640.101562 397.769531 638.519531 398.691406 C 631.394531 402.839844 623.121094 399.378906 615.558594 397.433594 C 609.339844 395.832031 603.085938 394.414062 596.792969 393.511719 C 584.066406 391.679688 571.074219 391.941406 559.175781 396.722656 C 552.773438 399.292969 546.984375 403.238281 541.964844 408.167969 C 539.691406 409.988281 537.484375 411.945312 535.453125 414.179688 C 524.691406 425.953125 517.511719 443.980469 519.671875 461.875 C 520.75 470.800781 527.121094 472.789062 533.960938 475.238281 C 542.875 478.421875 552.1875 479.964844 561.355469 479.765625 C 580.464844 479.367188 598.671875 471.0625 613.890625 459.078125 " fill-opacity="1" fill-rule="nonzero"/><path fill="#e0fbf0" d="M 566.105469 477.757812 C 562.09375 472.644531 556.246094 470.148438 549.832031 470.066406 C 546.207031 470.019531 542.871094 469.875 539.433594 468.589844 C 536.140625 467.363281 533.105469 465.53125 530.125 463.691406 C 535.152344 459.027344 540.304688 454.488281 545.886719 450.464844 C 546.027344 450.367188 546.175781 450.28125 546.320312 450.160156 C 563.175781 453.4375 574.722656 468.242188 591.253906 472.464844 C 592.460938 472.769531 593.042969 470.933594 591.835938 470.628906 C 575.84375 466.539062 564.535156 452.535156 548.503906 448.664062 C 555.304688 444.1875 562.671875 440.761719 570.296875 437.859375 C 572.867188 436.890625 575.4375 435.925781 578.007812 434.984375 C 582.335938 436.539062 585.9375 439.328125 589.859375 441.664062 C 593.28125 443.679688 596.875 445.054688 600.792969 445.757812 C 608.621094 447.144531 616.648438 446.265625 624.472656 447.722656 C 625.6875 447.949219 626.277344 446.085938 625.050781 445.867188 C 617.375 444.457031 609.535156 445.191406 601.839844 443.96875 C 597.324219 443.25 593.339844 441.574219 589.480469 439.148438 C 586.585938 437.328125 583.78125 435.421875 580.695312 434.007812 C 589.3125 430.84375 597.910156 427.683594 606.234375 423.871094 C 616.644531 425.921875 627.96875 427.539062 637.023438 420.703125 C 638.015625 419.953125 636.710938 418.507812 635.734375 419.246094 C 628.003906 425.09375 618.226562 424.152344 609.210938 422.484375 C 612.34375 420.980469 615.441406 419.378906 618.480469 417.617188 C 626.761719 412.851562 634.488281 407.167969 641.179688 400.324219 C 642.042969 399.4375 640.761719 397.988281 639.878906 398.878906 C 630.203125 408.773438 618.464844 416.023438 606.027344 421.871094 C 605.546875 421.789062 605.179688 422.039062 604.976562 422.367188 C 603.671875 422.980469 602.339844 423.5625 601.011719 424.136719 C 601.53125 421.234375 602.398438 418.445312 603.519531 415.746094 C 606.046875 409.703125 609.789062 404.125 613.449219 398.726562 C 614.152344 397.683594 612.511719 396.628906 611.8125 397.664062 C 606.132812 406.066406 600.410156 414.824219 598.921875 425.03125 C 597.878906 425.488281 596.828125 425.925781 595.777344 426.347656 C 589.871094 428.738281 583.816406 430.847656 577.789062 433.007812 L 577.675781 433.054688 C 574.449219 434.203125 571.238281 435.386719 568.054688 436.648438 C 567.46875 429.039062 571.324219 422.128906 575.171875 415.84375 C 579.382812 408.953125 583.035156 402.183594 584.867188 394.261719 C 585.140625 393.054688 583.300781 392.464844 583.019531 393.691406 C 581.996094 398.09375 580.503906 402.367188 578.449219 406.40625 C 576.4375 410.332031 573.945312 413.996094 571.734375 417.808594 C 568.238281 423.816406 565.503906 430.339844 566.1875 437.417969 C 559.488281 440.15625 552.984375 443.285156 546.960938 447.375 C 543.175781 449.933594 539.613281 452.753906 536.140625 455.71875 C 533.132812 447.148438 537.550781 438.324219 541.402344 430.730469 C 545.488281 422.738281 548.394531 414.789062 548.441406 405.699219 C 548.441406 404.453125 546.503906 404.371094 546.5 405.613281 C 546.476562 410.546875 545.71875 415.417969 544.109375 420.097656 C 542.332031 425.234375 539.535156 429.90625 537.226562 434.792969 C 533.945312 441.738281 531.722656 449.628906 534.589844 457.050781 C 530.769531 460.375 527.078125 463.863281 523.390625 467.351562 C 522.492188 468.203125 523.785156 469.65625 524.691406 468.796875 C 526.003906 467.546875 527.328125 466.3125 528.652344 465.070312 C 534.09375 468.410156 539.757812 471.695312 546.304688 471.957031 C 549.8125 472.117188 553.179688 471.859375 556.554688 473.082031 C 559.796875 474.253906 562.546875 476.351562 564.660156 479.066406 C 565.429688 480.03125 566.875 478.746094 566.105469 477.757812 " fill-opacity="1" fill-rule="nonzero"/><path fill="#29566d" d="M 277.132812 978.539062 L 497.5 978.554688 C 518.621094 978.554688 535.734375 961.445312 535.734375 940.328125 L 535.769531 414.746094 C 535.769531 393.632812 518.652344 376.519531 497.539062 376.515625 L 277.164062 376.503906 C 256.050781 376.503906 238.929688 393.617188 238.929688 414.722656 L 238.894531 940.3125 C 238.894531 961.425781 256.011719 978.539062 277.132812 978.539062 " fill-opacity="1" fill-rule="nonzero"/><path fill="#c1e5fd" d="M 280.609375 387.832031 L 494.089844 387.851562 C 510.003906 387.851562 522.902344 400.742188 522.902344 416.652344 L 522.867188 936.550781 C 522.867188 952.453125 509.96875 965.347656 494.054688 965.347656 L 280.574219 965.335938 C 264.667969 965.332031 251.765625 952.4375 251.765625 936.535156 L 251.800781 416.636719 C 251.800781 400.726562 264.703125 387.832031 280.609375 387.832031 " fill-opacity="1" fill-rule="nonzero"/><path fill="#29566d" d="M 367.527344 410.722656 L 407.136719 410.726562 C 410.363281 410.726562 412.972656 408.109375 412.972656 404.890625 C 412.972656 401.667969 410.363281 399.050781 407.148438 399.050781 L 367.527344 399.050781 C 364.304688 399.050781 361.691406 401.664062 361.691406 404.878906 C 361.691406 408.105469 364.304688 410.722656 367.527344 410.722656 " fill-opacity="1" fill-rule="nonzero"/><path fill="#f7fcff" d="M 508.242188 916.429688 C 508.242188 925.597656 500.734375 933.101562 491.566406 933.101562 L 283.105469 933.101562 C 273.929688 933.101562 266.425781 925.597656 266.425781 916.429688 L 266.425781 466.949219 C 266.425781 457.78125 273.929688 450.277344 283.105469 450.277344 L 491.566406 450.277344 C 500.734375 450.277344 508.242188 457.78125 508.242188 466.949219 L 508.242188 916.429688 " fill-opacity="1" fill-rule="nonzero"/><path fill="#67a6a4" d="M 466.441406 485.3125 L 308.222656 485.3125 C 303.878906 485.3125 300.332031 481.761719 300.332031 477.421875 C 300.332031 473.078125 303.878906 469.53125 308.222656 469.53125 L 466.441406 469.53125 C 470.785156 469.53125 474.339844 473.078125 474.339844 477.421875 C 474.339844 481.761719 470.785156 485.3125 466.441406 485.3125 " fill-opacity="1" fill-rule="nonzero"/><path fill="#fde09b" d="M 444.222656 507.800781 L 330.449219 507.800781 C 327.640625 507.800781 325.34375 505.503906 325.34375 502.703125 C 325.34375 499.894531 327.640625 497.601562 330.449219 497.601562 L 444.222656 497.601562 C 447.027344 497.601562 449.324219 499.894531 449.324219 502.703125 C 449.324219 505.503906 447.027344 507.800781 444.222656 507.800781 " fill-opacity="1" fill-rule="nonzero"/><path fill="#d1ecfe" d="M 371.855469 733.3125 L 287.539062 733.3125 C 285.699219 733.3125 284.203125 731.808594 284.203125 729.976562 L 284.203125 729.445312 C 284.203125 727.617188 285.699219 726.113281 287.539062 726.113281 L 371.363281 726.113281 C 371.277344 726.683594 371.265625 727.273438 371.316406 727.851562 C 371.492188 729.695312 371.671875 731.515625 371.855469 733.3125 " fill-opacity="1" fill-rule="nonzero"/><path fill="#d1ecfe" d="M 374.144531 751.597656 L 287.539062 751.597656 C 285.699219 751.597656 284.203125 750.09375 284.203125 748.257812 L 284.203125 747.738281 C 284.203125 745.898438 285.699219 744.398438 287.539062 744.398438 L 373.144531 744.398438 C 373.460938 746.835938 373.792969 749.238281 374.144531 751.597656 " fill-opacity="1" fill-rule="nonzero"/><path fill="#d1ecfe" d="M 377.355469 769.875 L 287.539062 769.875 C 285.699219 769.875 284.203125 768.378906 284.203125 766.539062 L 284.203125 766.015625 C 284.203125 764.183594 285.699219 762.683594 287.539062 762.683594 L 375.964844 762.683594 C 376.410156 765.125 376.871094 767.515625 377.355469 769.875 " fill-opacity="1" fill-rule="nonzero"/><path fill="#d1ecfe" d="M 381.789062 788.164062 L 287.539062 788.164062 C 285.699219 788.164062 284.203125 786.660156 284.203125 784.824219 L 284.203125 784.300781 C 284.203125 782.46875 285.699219 780.964844 287.539062 780.964844 L 379.875 780.964844 C 380.488281 783.410156 381.125 785.808594 381.789062 788.164062 " fill-opacity="1" fill-rule="nonzero"/><path fill="#d1ecfe" d="M 387.832031 806.441406 L 287.539062 806.441406 C 285.699219 806.441406 284.203125 804.941406 284.203125 803.109375 L 284.203125 802.582031 C 284.203125 800.746094 285.699219 799.25 287.539062 799.25 L 385.230469 799.25 C 386.0625 801.695312 386.929688 804.089844 387.832031 806.441406 " fill-opacity="1" fill-rule="nonzero"/><path fill="#d1ecfe" d="M 396.039062 824.726562 L 287.539062 824.726562 C 285.699219 824.726562 284.203125 823.222656 284.203125 821.394531 L 284.203125 820.867188 C 284.203125 819.03125 285.699219 817.535156 287.539062 817.535156 L 392.507812 817.535156 C 393.078125 818.769531 393.664062 819.988281 394.257812 821.203125 C 394.839844 822.386719 395.429688 823.558594 396.039062 824.726562 " fill-opacity="1" fill-rule="nonzero"/><path fill="#d1ecfe" d="M 407.125 843.011719 L 287.539062 843.011719 C 285.699219 843.011719 284.203125 841.507812 284.203125 839.675781 L 284.203125 839.144531 C 284.203125 837.3125 285.699219 835.8125 287.539062 835.8125 L 402.359375 835.8125 C 403.882812 838.261719 405.480469 840.664062 407.125 843.011719 " fill-opacity="1" fill-rule="nonzero"/><path fill="#d1ecfe" d="M 422.242188 861.292969 L 287.539062 861.292969 C 285.699219 861.292969 284.203125 859.792969 284.203125 857.960938 L 284.203125 857.429688 C 284.203125 855.597656 285.699219 854.097656 287.539062 854.097656 L 415.714844 854.097656 C 417.808594 856.5625 419.984375 858.960938 422.242188 861.292969 " fill-opacity="1" fill-rule="nonzero"/><path fill="#d1ecfe" d="M 443.339844 879.574219 L 287.539062 879.574219 C 285.699219 879.574219 284.203125 878.070312 284.203125 876.238281 L 284.203125 875.714844 C 284.203125 873.882812 285.699219 872.378906 287.539062 872.378906 L 434.140625 872.378906 C 437.09375 874.859375 440.15625 877.261719 443.339844 879.574219 " fill-opacity="1" fill-rule="nonzero"/><path fill="#d1ecfe" d="M 487.128906 897.855469 L 287.539062 897.855469 C 285.699219 897.855469 284.203125 896.355469 284.203125 894.523438 L 284.203125 893.996094 C 284.203125 892.167969 285.699219 890.660156 287.539062 890.660156 L 460.546875 890.660156 C 461.355469 891.121094 462.160156 891.570312 462.972656 892.023438 C 464.078125 892.632812 465.324219 892.953125 466.585938 892.953125 C 467.839844 892.953125 469.085938 892.632812 470.191406 892.023438 C 471.007812 891.570312 471.816406 891.121094 472.617188 890.660156 L 487.128906 890.660156 C 488.964844 890.660156 490.46875 892.167969 490.46875 893.996094 L 490.46875 894.523438 C 490.46875 896.355469 488.964844 897.855469 487.128906 897.855469 " fill-opacity="1" fill-rule="nonzero"/><path fill="#d1ecfe" d="M 392.074219 916.140625 L 287.539062 916.140625 C 285.699219 916.140625 284.203125 914.636719 284.203125 912.808594 L 284.203125 912.28125 C 284.203125 910.445312 285.699219 908.941406 287.539062 908.941406 L 392.074219 908.941406 C 393.90625 908.941406 395.40625 910.445312 395.40625 912.28125 L 395.40625 912.808594 C 395.40625 914.636719 393.90625 916.140625 392.074219 916.140625 " fill-opacity="1" fill-rule="nonzero"/><path fill="#dbf1ff" d="M 469.539062 672.230469 C 469.539062 685.796875 458.445312 696.886719 444.875 696.886719 L 329.789062 696.886719 C 316.226562 696.886719 305.128906 685.796875 305.128906 672.230469 L 305.128906 557.171875 C 305.128906 543.613281 316.226562 532.515625 329.789062 532.515625 L 444.875 532.515625 C 458.445312 532.515625 469.539062 543.613281 469.539062 557.171875 L 469.539062 672.230469 " fill-opacity="1" fill-rule="nonzero"/><path fill="#4693b9" d="M 346.234375 699.765625 L 325.679688 699.765625 C 312.761719 699.765625 302.25 689.257812 302.25 676.339844 L 302.25 655.796875 C 302.25 654.203125 303.539062 652.917969 305.128906 652.917969 C 306.714844 652.917969 308.003906 654.203125 308.003906 655.796875 L 308.003906 676.339844 C 308.003906 686.085938 315.933594 694.011719 325.679688 694.011719 L 346.234375 694.011719 C 347.824219 694.011719 349.113281 695.300781 349.113281 696.886719 C 349.113281 698.476562 347.824219 699.765625 346.234375 699.765625 " fill-opacity="1" fill-rule="nonzero"/><path fill="#4693b9" d="M 448.992188 699.765625 L 428.4375 699.765625 C 426.847656 699.765625 425.558594 698.476562 425.558594 696.886719 C 425.558594 695.300781 426.847656 694.011719 428.4375 694.011719 L 448.992188 694.011719 C 458.734375 694.011719 466.660156 686.085938 466.660156 676.339844 L 466.660156 655.796875 C 466.660156 654.203125 467.949219 652.917969 469.539062 652.917969 C 471.128906 652.917969 472.414062 654.203125 472.414062 655.796875 L 472.414062 676.339844 C 472.414062 689.257812 461.90625 699.765625 448.992188 699.765625 " fill-opacity="1" fill-rule="nonzero"/><path fill="#4693b9" d="M 469.539062 576.484375 C 467.949219 576.484375 466.660156 575.195312 466.660156 573.609375 L 466.660156 553.066406 C 466.660156 543.320312 458.734375 535.394531 448.992188 535.394531 L 428.4375 535.394531 C 426.847656 535.394531 425.558594 534.105469 425.558594 532.515625 C 425.558594 530.925781 426.847656 529.640625 428.4375 529.640625 L 448.992188 529.640625 C 461.90625 529.640625 472.414062 540.148438 472.414062 553.066406 L 472.414062 573.609375 C 472.414062 575.195312 471.128906 576.484375 469.539062 576.484375 " fill-opacity="1" fill-rule="nonzero"/><path fill="#4693b9" d="M 305.128906 576.484375 C 303.539062 576.484375 302.25 575.195312 302.25 573.609375 L 302.25 553.066406 C 302.25 540.148438 312.761719 529.640625 325.679688 529.640625 L 346.234375 529.640625 C 347.824219 529.640625 349.113281 530.925781 349.113281 532.515625 C 349.113281 534.105469 347.824219 535.394531 346.234375 535.394531 L 325.679688 535.394531 C 315.933594 535.394531 308.003906 543.320312 308.003906 553.066406 L 308.003906 573.609375 C 308.003906 575.195312 306.714844 576.484375 305.128906 576.484375 " fill-opacity="1" fill-rule="nonzero"/><path fill="#ffd471" d="M 429.140625 580.632812 C 420.261719 536.027344 354.894531 535.273438 345.652344 579.800781 C 345.039062 582.742188 344.691406 585.769531 344.632812 588.875 C 344.414062 600.914062 348.535156 612.011719 355.550781 620.683594 C 360.945312 627.367188 364.503906 635.28125 365.996094 643.652344 C 366.390625 645.867188 367.878906 647.65625 369.867188 648.429688 L 403.660156 648.753906 C 405.652344 648.03125 407.214844 646.328125 407.640625 644.144531 C 408.085938 641.855469 408.738281 639.425781 409.566406 637.078125 L 409.605469 636.953125 C 411.609375 631.265625 414.613281 625.945312 418.542969 621.269531 C 425.621094 612.832031 429.925781 601.984375 430.039062 590.113281 C 430.070312 586.878906 429.753906 583.710938 429.140625 580.632812 " fill-opacity="1" fill-rule="nonzero"/><path fill="#2f627c" d="M 370.070312 648.4375 L 369.964844 660.058594 L 369.914062 665.410156 L 369.914062 665.601562 C 369.878906 668.945312 372.515625 671.683594 375.835938 671.828125 L 375.753906 671.828125 L 375.75 672.320312 C 375.691406 678.359375 380.550781 683.316406 386.597656 683.375 C 392.644531 683.425781 397.597656 678.574219 397.648438 672.53125 L 397.65625 672.03125 L 397.292969 672.03125 C 400.613281 671.949219 403.300781 669.261719 403.328125 665.910156 L 403.328125 665.726562 L 403.382812 660.378906 L 403.492188 648.753906 L 370.070312 648.4375 " fill-opacity="1" fill-rule="nonzero"/><path fill="#29566d" d="M 376.320312 672.3125 C 383.226562 672.53125 390.132812 672.617188 397.042969 672.566406 C 397.765625 672.566406 397.769531 671.445312 397.042969 671.445312 C 390.136719 671.5 383.234375 671.40625 376.328125 671.1875 C 375.605469 671.167969 375.601562 672.285156 376.320312 672.3125 " fill-opacity="1" fill-rule="nonzero"/><path fill="#29566d" d="M 370.515625 660.269531 C 381.199219 660.390625 391.890625 660.480469 402.578125 660.523438 C 403.308594 660.523438 403.308594 659.394531 402.585938 659.394531 C 391.902344 659.355469 381.210938 659.269531 370.519531 659.148438 C 369.796875 659.140625 369.792969 660.261719 370.515625 660.269531 " fill-opacity="1" fill-rule="nonzero"/><path fill="#29566d" d="M 380.117188 648.511719 C 378.53125 639.296875 376.789062 630.082031 372.347656 621.746094 C 369.804688 616.964844 367.378906 612.453125 365.914062 607.183594 C 364.441406 601.875 363.019531 596.519531 362.296875 591.046875 C 362.222656 590.480469 361.328125 590.476562 361.402344 591.046875 C 362.679688 600.78125 365.269531 610.78125 370.03125 619.402344 C 375.136719 628.644531 377.414062 638.199219 379.207031 648.511719 L 380.117188 648.511719 " fill-opacity="1" fill-rule="nonzero"/><path fill="#29566d" d="M 408.277344 583.023438 C 406.90625 582.296875 405.550781 581.445312 404.132812 580.839844 C 403.707031 580.65625 403.308594 580.441406 402.832031 580.476562 C 401.941406 580.539062 401.023438 581.269531 400.300781 581.730469 C 399.933594 581.96875 399.566406 582.285156 399.1875 582.492188 C 397.515625 583.394531 397.949219 583.09375 396.996094 582.613281 C 395.558594 581.890625 394.085938 579.761719 392.292969 580.210938 C 391.339844 580.453125 390.359375 581.28125 389.570312 581.851562 C 389.289062 582.058594 389.023438 582.324219 388.722656 582.515625 C 387.59375 583.261719 387.371094 583.210938 386.382812 582.523438 C 385.109375 581.632812 382.847656 579.246094 381.222656 579.511719 C 379.136719 579.847656 377.863281 582.445312 375.945312 582.9375 C 374.109375 583.40625 373.144531 579.761719 371.273438 579.585938 C 369.722656 579.441406 367.378906 582.09375 366.324219 583.023438 C 365.890625 583.40625 366.503906 584.0625 366.9375 583.683594 C 367.820312 582.902344 368.722656 582.144531 369.664062 581.429688 C 370.589844 580.742188 370.988281 580.414062 372.070312 581.1875 C 372.515625 581.503906 372.929688 582.058594 373.328125 582.429688 C 373.953125 583.011719 374.988281 584.328125 375.957031 584.15625 C 376.519531 584.0625 377.101562 583.300781 377.511719 582.964844 C 378.398438 582.246094 379.582031 581.113281 380.703125 580.75 C 383.246094 579.9375 385.109375 583.625 387.261719 584.175781 C 388.519531 584.496094 389.890625 582.695312 390.792969 582.09375 C 392.125 581.199219 393.097656 581.019531 394.488281 581.980469 C 395.34375 582.574219 396.183594 583.273438 397.09375 583.773438 C 398.582031 584.59375 399.488281 583.320312 400.730469 582.523438 C 401.828125 581.8125 402.6875 581.320312 404 581.78125 C 405.277344 582.226562 406.59375 583.152344 407.796875 583.773438 C 408.300781 584.050781 408.785156 583.289062 408.277344 583.023438 " fill-opacity="1" fill-rule="nonzero"/><path fill="#29566d" d="M 410.777344 591.175781 C 410.0625 596.644531 408.632812 602 407.160156 607.316406 C 405.699219 612.585938 403.273438 617.089844 400.730469 621.875 C 396.285156 630.210938 394.546875 639.425781 392.964844 648.644531 L 393.871094 648.644531 C 395.65625 638.328125 397.9375 628.773438 403.046875 619.527344 C 407.808594 610.910156 410.390625 600.902344 411.679688 591.175781 C 411.753906 590.605469 410.851562 590.605469 410.777344 591.175781 " fill-opacity="1" fill-rule="nonzero"/><path fill="#ffa18a" d="M 131.261719 944.679688 L 151.164062 944.679688 C 151.03125 942.390625 150.925781 940.121094 150.945312 937.820312 C 150.980469 929.960938 151.863281 922.078125 152.878906 914.296875 C 153.855469 906.78125 155.386719 899.433594 158.074219 892.355469 C 159.5 888.585938 161.074219 884.835938 161.921875 880.867188 C 162.574219 877.804688 162.742188 874.695312 162.488281 871.601562 L 134.175781 871.601562 C 134.523438 877.167969 134.84375 882.734375 133.019531 888.105469 C 132.039062 891.011719 130.957031 893.851562 130.234375 896.855469 C 129.535156 899.75 129.066406 902.699219 128.777344 905.667969 C 127.546875 918.144531 129.390625 930.726562 131.039062 943.085938 C 131.105469 943.609375 131.195312 944.148438 131.261719 944.679688 " fill-opacity="1" fill-rule="nonzero"/><path fill="#98d4fc" d="M 151.445312 944.679688 C 151.660156 942.707031 151.878906 940.746094 152.070312 938.785156 C 152.070312 938.785156 146.027344 939.445312 129.59375 938.539062 C 129.59375 938.539062 129.839844 941.292969 130.152344 944.679688 L 151.445312 944.679688 " fill-opacity="1" fill-rule="nonzero"/><path fill="#091317" d="M 174.855469 984.550781 C 174.382812 982.007812 172.59375 980.300781 170.589844 978.953125 C 166.734375 976.359375 154.707031 972.921875 153.421875 971.777344 C 150.957031 969.578125 150.5 965.984375 150.613281 962.8125 C 150.847656 956.117188 151.707031 949.394531 152.273438 942.726562 C 152.273438 942.726562 143.796875 944.792969 129.304688 942.449219 C 129.304688 942.449219 130.292969 954.417969 130.777344 960.414062 C 131.015625 963.34375 131.273438 966.277344 131.050781 969.214844 C 130.851562 971.789062 130.304688 974.320312 129.785156 976.839844 C 129.265625 979.351562 128.761719 981.886719 128.679688 984.457031 C 128.667969 984.914062 128.675781 985.863281 128.675781 985.863281 C 130.273438 987.492188 134.058594 987.351562 135.84375 987.273438 C 140.347656 987.082031 144.6875 986.386719 149.226562 986.6875 C 155.074219 987.058594 160.867188 988.011719 166.726562 988.242188 C 168.730469 988.316406 170.640625 988.292969 172.457031 988.007812 C 174.785156 987.40625 174.980469 985.246094 174.855469 984.550781 " fill-opacity="1" fill-rule="nonzero"/><path fill="#ffa18a" d="M 97.207031 944.679688 L 117.105469 944.679688 C 116.96875 942.390625 116.871094 940.121094 116.878906 937.820312 C 116.921875 929.960938 117.804688 922.078125 118.820312 914.296875 C 119.796875 906.78125 121.328125 899.433594 124.015625 892.355469 C 125.445312 888.585938 127.015625 884.835938 127.867188 880.867188 C 128.519531 877.804688 128.6875 874.695312 128.429688 871.601562 L 100.117188 871.601562 C 100.457031 877.167969 100.792969 882.734375 98.960938 888.105469 C 97.980469 891.011719 96.894531 893.851562 96.183594 896.855469 C 95.484375 899.75 95.015625 902.699219 94.722656 905.667969 C 93.484375 918.144531 95.332031 930.726562 96.972656 943.085938 C 97.042969 943.609375 97.128906 944.148438 97.207031 944.679688 " fill-opacity="1" fill-rule="nonzero"/><path fill="#98d4fc" d="M 117.390625 944.679688 C 117.601562 942.707031 117.824219 940.746094 118.007812 938.785156 C 118.007812 938.785156 111.976562 939.445312 95.53125 938.539062 C 95.53125 938.539062 95.789062 941.292969 96.097656 944.679688 L 117.390625 944.679688 " fill-opacity="1" fill-rule="nonzero"/><path fill="#12252e" d="M 140.796875 984.550781 C 140.324219 982.007812 138.539062 980.300781 136.539062 978.953125 C 132.679688 976.359375 120.648438 972.921875 119.367188 971.777344 C 116.898438 969.578125 116.441406 965.984375 116.550781 962.8125 C 116.789062 956.117188 117.648438 949.394531 118.214844 942.726562 C 118.214844 942.726562 109.738281 944.792969 95.246094 942.449219 C 95.246094 942.449219 96.230469 954.417969 96.71875 960.414062 C 96.960938 963.34375 97.21875 966.277344 96.992188 969.214844 C 96.796875 971.789062 96.246094 974.320312 95.726562 976.839844 C 95.210938 979.351562 94.703125 981.886719 94.621094 984.457031 C 94.609375 984.914062 94.617188 985.863281 94.617188 985.863281 C 96.21875 987.492188 100.007812 987.351562 101.789062 987.273438 C 106.289062 987.082031 110.628906 986.386719 115.171875 986.6875 C 121.019531 987.058594 126.808594 988.011719 132.660156 988.242188 C 134.671875 988.316406 136.585938 988.292969 138.398438 988.007812 C 140.734375 987.40625 140.929688 985.246094 140.796875 984.550781 " fill-opacity="1" fill-rule="nonzero"/><path fill="#ffa18a" d="M 229.4375 650.972656 C 228.148438 649.65625 226.703125 652.628906 226.167969 653.351562 C 224.589844 655.523438 222.375 656.84375 220.097656 658.113281 C 220.804688 657.320312 221.496094 656.511719 222.230469 655.757812 C 222.84375 655.132812 223.527344 654.554688 224.058594 653.855469 C 224.679688 653.074219 225.097656 652.128906 225.558594 651.25 C 225.96875 650.414062 226.4375 649.585938 226.789062 648.726562 C 226.976562 648.273438 227.109375 647.71875 226.738281 647.316406 C 225.859375 646.390625 224.507812 647.414062 223.722656 648.273438 C 223.824219 647.8125 223.84375 647.363281 223.652344 646.90625 C 223 645.351562 221.640625 646.84375 220.929688 647.496094 C 218.789062 649.488281 216.648438 651.46875 214.402344 653.351562 C 213.460938 654.128906 212.449219 655.253906 211.351562 655.800781 C 211.199219 655.921875 211.054688 656.027344 210.910156 656.144531 C 210.507812 655.957031 210.109375 655.777344 209.699219 655.589844 C 209.617188 655.425781 210.042969 654.648438 210.113281 654.492188 C 210.320312 654.039062 210.554688 653.601562 210.703125 653.128906 C 210.953125 652.277344 210.992188 650.359375 209.632812 650.601562 C 208.882812 650.730469 208.089844 651.941406 207.667969 652.480469 C 206.925781 653.40625 206.183594 654.375 205.59375 655.402344 C 204.550781 657.199219 204.433594 659.152344 204.445312 661.175781 C 204.484375 663.972656 204.230469 666.65625 203.261719 669.292969 C 202.742188 670.691406 202.058594 672.03125 201.222656 673.265625 C 200.453125 674.425781 199.523438 675.445312 198.882812 676.679688 C 198.851562 676.738281 208 680.648438 210.132812 681.242188 C 210.554688 676.820312 214.824219 673.839844 217.589844 670.769531 C 218.898438 669.320312 220.199219 667.859375 221.710938 666.621094 C 223.21875 665.425781 225 664.535156 226.222656 663.019531 C 227.355469 661.597656 228.164062 659.839844 229.039062 658.257812 C 229.34375 657.695312 230.09375 656.460938 229.066406 656.109375 C 228.195312 655.8125 227.042969 657.222656 226.523438 657.65625 C 226.355469 657.808594 226.1875 657.96875 226.023438 658.105469 C 226.53125 657.542969 227.023438 656.957031 227.476562 656.34375 C 228.246094 655.3125 230.761719 652.347656 229.4375 650.972656 " fill-opacity="1" fill-rule="nonzero"/><path fill="#ffd471" d="M 91.253906 760.082031 C 87.550781 756.019531 72.855469 737.972656 70.53125 736.042969 C 76.664062 727.667969 84.503906 717.175781 86.941406 707.148438 C 89.617188 716.195312 92.492188 722.710938 94.230469 732 L 95.160156 738.742188 C 94.730469 747.164062 92.617188 752.734375 91.253906 760.082031 Z M 212.945312 678.296875 C 207.257812 676.785156 205.183594 675.097656 200.15625 672.042969 C 193.761719 678.355469 187.207031 687.910156 180.523438 693.90625 C 173.316406 700.378906 169.53125 693.0625 160.523438 685.003906 C 154.117188 679.261719 148.707031 673.675781 143.332031 671.445312 C 132.746094 667.042969 124.589844 668.269531 115.070312 667.609375 C 98.75 666.484375 88.71875 666.257812 79.109375 674.542969 C 68.644531 683.566406 60.15625 706.75 58.503906 711.988281 C 56.859375 717.207031 54.542969 722.179688 52.839844 727.378906 C 50.292969 735.15625 48.753906 741.976562 53.804688 749.042969 C 56.785156 753.21875 78.015625 768.621094 83.914062 772.359375 C 83.914062 772.359375 87.207031 766.355469 89.238281 763.976562 C 87.042969 780.480469 86.210938 797.117188 85.347656 813.734375 C 84.355469 832.75 83.371094 851.769531 82.378906 870.796875 C 113.257812 882.8125 146.453125 875.394531 177.414062 870.695312 C 174.28125 845.621094 170.140625 820.683594 164.925781 795.949219 C 162.304688 783.496094 159.410156 771.109375 156.277344 758.777344 C 153.164062 746.511719 148.316406 737.585938 149.792969 724.835938 C 150.371094 719.8125 151.140625 713.710938 149.8125 707.269531 C 151.167969 708.128906 155.839844 710.5625 157.160156 711.375 C 164.257812 715.742188 172.457031 719.378906 180.9375 718.320312 C 189.148438 717.304688 194.339844 709.214844 199.226562 702.917969 C 205.230469 695.191406 207.324219 686.304688 212.945312 678.296875 " fill-opacity="1" fill-rule="nonzero"/><path fill="#ffa18a" d="M 101.441406 651.25 C 101.117188 648.234375 100.753906 646.21875 100.753906 646.21875 C 100.753906 646.21875 105.613281 645.496094 106.542969 640.886719 C 106.5625 640.828125 110.1875 615.664062 118.78125 614.722656 C 128.957031 613.605469 133.613281 616.324219 135.65625 626.246094 C 136.527344 630.457031 138.71875 631.914062 140.925781 633.785156 C 141.796875 634.515625 141.203125 636.160156 139.953125 636.066406 L 138.460938 636.160156 C 138.128906 636.191406 137.875 636.472656 137.886719 636.8125 C 137.9375 639.671875 137.722656 642.371094 137.128906 644.78125 C 135.746094 650.441406 136.480469 656.316406 126.703125 656.195312 C 125.558594 656.179688 124.445312 656.101562 123.359375 655.980469 C 123.359375 655.980469 123.578125 662.730469 125.855469 672.929688 C 126.097656 674.003906 126.289062 675.207031 126.289062 675.207031 C 122.707031 679.875 110.929688 678.125 105.863281 673.457031 C 103.808594 671.574219 100.691406 668.644531 100.816406 668.054688 C 102.054688 662.46875 101.9375 655.933594 101.441406 651.25 " fill-opacity="1" fill-rule="nonzero"/><path fill="#2f627c" d="M 68.480469 849.746094 C 60.488281 843.929688 58.722656 832.738281 64.535156 824.742188 L 167.070312 683.785156 C 168.578125 681.71875 171.515625 681.25 173.589844 682.757812 L 194.992188 698.320312 C 197.066406 699.828125 197.535156 702.761719 196.019531 704.84375 L 93.484375 845.789062 C 87.671875 853.789062 76.480469 855.550781 68.480469 849.746094 " fill-opacity="1" fill-rule="nonzero"/><path fill="#4693b9" d="M 195.820312 698.921875 L 184.296875 690.542969 L 172.761719 682.15625 C 172.761719 682.15625 266.777344 551.597656 281.582031 549.859375 C 285.117188 549.441406 285.890625 550.882812 285.890625 550.882812 C 285.890625 550.882812 287.492188 551.164062 288.183594 554.664062 C 291.089844 569.273438 195.820312 698.921875 195.820312 698.921875 " fill-opacity="1" fill-rule="nonzero"/><path fill="#29566d" d="M 283.753906 549.847656 L 287.105469 545.242188 C 287.867188 544.199219 289.328125 543.960938 290.371094 544.722656 C 291.410156 545.480469 291.640625 546.9375 290.882812 547.980469 L 287.527344 552.589844 L 283.753906 549.847656 " fill-opacity="1" fill-rule="nonzero"/><path fill="#254d62" d="M 193.179688 708.757812 L 164.222656 687.703125 L 160.074219 693.40625 L 189.023438 714.457031 L 193.179688 708.757812 " fill-opacity="1" fill-rule="nonzero"/><path fill="#254d62" d="M 98.667969 854.039062 C 97.222656 852.992188 96.90625 850.976562 97.949219 849.539062 L 100.046875 846.660156 L 96.5625 844.121094 C 96.039062 844.707031 95.148438 844.835938 94.496094 844.375 L 65.585938 823.339844 C 64.894531 822.84375 64.738281 821.855469 65.238281 821.167969 L 69.816406 814.875 C 70.324219 814.183594 71.300781 814.027344 71.996094 814.53125 L 100.902344 835.550781 C 101.554688 836.03125 101.710938 836.921875 101.308594 837.597656 L 104.792969 840.140625 L 171.351562 748.683594 L 170.421875 742.746094 C 170.285156 741.902344 170.492188 741.035156 170.996094 740.347656 L 173.015625 737.574219 C 173.519531 736.882812 174.277344 736.414062 175.125 736.28125 L 178.984375 735.679688 C 179.863281 735.542969 180.71875 735.765625 181.382812 736.253906 C 182.046875 736.738281 182.535156 737.476562 182.671875 738.355469 C 182.949219 740.117188 181.75 741.769531 179.992188 742.039062 L 177.449219 742.445312 L 177 743.0625 L 177.933594 748.996094 C 178.074219 749.84375 177.859375 750.707031 177.355469 751.398438 L 103.167969 853.339844 C 102.121094 854.773438 100.105469 855.089844 98.667969 854.039062 " fill-opacity="1" fill-rule="nonzero"/><path fill="#ffa18a" d="M 105.976562 790.761719 C 107.492188 789.707031 104.769531 787.804688 104.140625 787.171875 C 102.246094 785.269531 101.289062 782.871094 100.394531 780.433594 C 101.058594 781.253906 101.753906 782.058594 102.382812 782.902344 C 102.910156 783.605469 103.371094 784.363281 103.984375 785.003906 C 104.652344 785.742188 105.515625 786.304688 106.316406 786.898438 C 107.082031 787.429688 107.820312 788.03125 108.613281 788.511719 C 109.035156 788.765625 109.558594 788.984375 110.011719 788.679688 C 111.066406 787.957031 110.269531 786.460938 109.535156 785.546875 C 109.980469 785.726562 110.425781 785.8125 110.898438 785.703125 C 112.542969 785.285156 111.289062 783.722656 110.75 782.917969 C 109.121094 780.496094 107.492188 778.066406 105.988281 775.546875 C 105.363281 774.5 104.40625 773.316406 104.046875 772.148438 C 103.949219 771.988281 103.867188 771.820312 103.777344 771.664062 C 104.019531 771.289062 104.265625 770.925781 104.515625 770.550781 C 104.6875 770.496094 105.386719 771.039062 105.53125 771.140625 C 105.953125 771.410156 106.339844 771.710938 106.785156 771.929688 C 107.589844 772.316406 109.472656 772.652344 109.449219 771.277344 C 109.449219 770.496094 108.371094 769.539062 107.902344 769.042969 C 107.109375 768.152344 106.265625 767.273438 105.347656 766.535156 C 103.734375 765.21875 101.824219 764.796875 99.8125 764.496094 C 97.050781 764.089844 94.4375 763.425781 91.988281 762.046875 C 90.691406 761.316406 89.472656 760.441406 88.382812 759.410156 C 87.359375 758.46875 86.5 757.394531 85.371094 756.570312 C 85.324219 756.527344 80.027344 764.953125 79.109375 766.960938 C 83.40625 768.070312 85.683594 772.757812 88.285156 775.96875 C 89.507812 777.488281 90.75 779 91.726562 780.6875 C 92.679688 782.363281 93.277344 784.257812 94.59375 785.707031 C 95.808594 787.050781 97.417969 788.125 98.839844 789.234375 C 99.355469 789.625 100.457031 790.554688 100.960938 789.597656 C 101.390625 788.777344 100.1875 787.425781 99.835938 786.847656 C 99.714844 786.65625 99.582031 786.464844 99.46875 786.28125 C 99.949219 786.863281 100.445312 787.449219 100.984375 787.996094 C 101.878906 788.910156 104.417969 791.867188 105.976562 790.761719 " fill-opacity="1" fill-rule="nonzero"/><path fill="#ffd471" d="M 92.777344 761.144531 C 92.777344 761.144531 89.75 763.15625 87.335938 766.304688 C 85.355469 768.875 83.914062 772.359375 83.914062 772.359375 L 76.511719 767.273438 L 85.105469 752.894531 L 92.777344 761.144531 " fill-opacity="1" fill-rule="nonzero"/><path fill="#a55852" d="M 82.636719 627.375 C 84.875 625.890625 86.960938 626 88.394531 626.328125 C 87.539062 621.191406 87.683594 618.027344 89.035156 614.847656 C 91.660156 608.695312 96.644531 603.828125 103.066406 601.347656 C 116.753906 596.082031 117.980469 602.457031 125.496094 602.078125 C 128.195312 601.9375 130.59375 600.910156 133.054688 602.566406 C 135.578125 604.273438 136.984375 607.390625 136.996094 610.335938 C 137.011719 620.269531 129.074219 618.007812 124.964844 621.539062 C 122.019531 624.058594 119.984375 628.617188 119.492188 630.042969 C 118.113281 634.039062 113.71875 635.640625 111.910156 639.417969 C 110.039062 643.328125 109.347656 649.460938 106.046875 652.457031 C 103.441406 654.8125 97.339844 652.371094 95.101562 649.527344 C 94.265625 650.332031 91.148438 651.246094 88.128906 650.546875 C 84.332031 649.660156 81.453125 645.269531 79.761719 639.839844 C 77.90625 633.890625 80.074219 629.082031 82.636719 627.375 " fill-opacity="1" fill-rule="nonzero"/><path fill="#a2ddd0" d="M 332.613281 995.914062 C 332.613281 995.914062 281.902344 900.570312 323.105469 901.570312 C 340.050781 901.992188 354.675781 977.804688 354.675781 977.804688 C 354.675781 977.804688 351.359375 908.628906 385.242188 919.484375 C 403.578125 925.355469 375.84375 977.804688 375.84375 977.804688 C 375.84375 977.804688 400.949219 943.9375 415.078125 953.558594 C 438.109375 969.226562 395.851562 996.175781 395.851562 996.175781 L 332.613281 995.914062 " fill-opacity="1" fill-rule="nonzero"/><path fill="#a2ddd0" d="M 310.375 995.820312 C 310.375 995.820312 301.433594 945.355469 281.800781 946.210938 C 267.746094 946.851562 280.425781 981.015625 292.335938 995.78125 C 292.335938 995.78125 309.832031 995.820312 310.375 995.820312 " fill-opacity="1" fill-rule="nonzero"/><path fill="#e0fbf0" d="M 344.929688 995.953125 L 323.804688 921.242188 C 323.664062 920.734375 323.136719 920.445312 322.648438 920.589844 C 322.140625 920.726562 321.851562 921.246094 321.996094 921.753906 L 342.96875 995.949219 L 344.929688 995.953125 " fill-opacity="1" fill-rule="nonzero"/><path fill="#e0fbf0" d="M 362.429688 996.035156 L 377.074219 935.570312 C 377.195312 935.066406 376.882812 934.558594 376.375 934.425781 C 375.867188 934.320312 375.363281 934.617188 375.230469 935.128906 L 360.496094 996.035156 L 362.429688 996.035156 " fill-opacity="1" fill-rule="nonzero"/><path fill="#e0fbf0" d="M 301.109375 995.78125 L 287.597656 962.074219 C 287.40625 961.582031 286.851562 961.355469 286.371094 961.546875 C 285.886719 961.742188 285.648438 962.292969 285.84375 962.773438 L 299.070312 995.78125 L 301.109375 995.78125 " fill-opacity="1" fill-rule="nonzero"/><path fill="#e0fbf0" d="M 377.96875 996.117188 L 404.574219 966.121094 C 404.917969 965.734375 404.882812 965.140625 404.492188 964.78125 C 404.105469 964.4375 403.507812 964.46875 403.152344 964.871094 L 375.449219 996.109375 L 377.96875 996.117188 " fill-opacity="1" fill-rule="nonzero"/><path fill="#ffa18a" d="M 624.609375 941.800781 L 602.683594 933.683594 C 603.761719 931.222656 604.816406 928.746094 605.726562 926.222656 C 608.894531 917.542969 611.140625 908.496094 613.203125 899.515625 C 615.1875 890.832031 616.503906 882.121094 616.433594 873.222656 C 616.40625 868.480469 616.210938 863.714844 616.890625 858.984375 C 617.421875 855.363281 618.507812 851.859375 620.050781 848.554688 L 654.230469 853.050781 C 651.574219 859.042969 645.960938 872.089844 645.777344 878.765625 C 645.671875 882.375 645.703125 885.949219 645.269531 889.539062 C 644.859375 893.015625 644.171875 896.445312 643.273438 899.84375 C 639.542969 914.101562 632.367188 927.199219 625.511719 940.136719 C 625.21875 940.699219 624.90625 941.246094 624.609375 941.800781 " fill-opacity="1" fill-rule="nonzero"/><path fill="#ffd471" d="M 602.371094 933.5625 C 602.9375 931.324219 603.496094 929.074219 604.09375 926.828125 C 604.09375 926.828125 610.476562 930.015625 628.949219 935.730469 C 628.949219 935.730469 627.550781 938.671875 625.832031 942.257812 L 602.371094 933.5625 " fill-opacity="1" fill-rule="nonzero"/><path fill="#12252e" d="M 560.292969 967.929688 C 561.859375 965.332031 564.527344 964.1875 567.277344 963.5 C 572.582031 962.230469 587.242188 963.355469 589.125 962.617188 C 592.742188 961.195312 594.707031 957.421875 595.882812 953.894531 C 598.359375 946.421875 600.15625 938.671875 602.261719 931.085938 C 602.261719 931.085938 610.753906 936.8125 627.679688 940.15625 C 627.679688 940.15625 621.703125 952.941406 618.710938 959.339844 C 617.253906 962.464844 615.769531 965.585938 614.816406 968.929688 C 613.980469 971.84375 613.5625 974.851562 613.101562 977.839844 C 612.648438 980.832031 612.171875 983.824219 611.207031 986.683594 C 611.039062 987.1875 610.640625 988.230469 610.640625 988.230469 C 608.207031 989.375 604.09375 987.683594 602.15625 986.875 C 597.28125 984.8125 592.777344 982.273438 587.652344 980.757812 C 581.066406 978.792969 574.300781 977.46875 567.746094 975.332031 C 565.511719 974.574219 563.40625 973.789062 561.523438 972.714844 C 559.207031 971.097656 559.871094 968.640625 560.292969 967.929688 " fill-opacity="1" fill-rule="nonzero"/><path fill="#ee9681" d="M 514.027344 737.449219 C 514.914062 737.464844 515.792969 737.441406 516.679688 737.390625 C 516.429688 737.441406 516.167969 737.472656 515.902344 737.515625 C 515.140625 737.679688 513.039062 737.714844 512.667969 738.730469 C 512.257812 739.910156 513.921875 740.109375 514.65625 740.238281 C 516.722656 740.585938 518.898438 741.097656 521 741.085938 C 523.257812 741.0625 525.351562 740.089844 527.53125 739.578125 C 529.738281 739.070312 532.003906 738.9375 534.253906 738.800781 C 539.035156 738.476562 544.8125 736.71875 549.140625 739.503906 C 550.132812 737.148438 553.128906 726.019531 553.050781 726.003906 C 551.480469 725.6875 549.875 725.820312 548.269531 725.6875 C 546.546875 725.554688 544.828125 725.222656 543.195312 724.6875 C 540.085938 723.679688 537.46875 721.976562 534.949219 719.949219 C 533.113281 718.480469 531.25 717.1875 528.863281 716.847656 C 527.511719 716.652344 526.089844 716.628906 524.722656 716.640625 C 523.917969 716.640625 522.253906 716.5 521.589844 717.089844 C 520.410156 718.160156 522.171875 719.5 523.125 719.867188 C 523.667969 720.070312 524.234375 720.167969 524.789062 720.3125 C 524.992188 720.359375 526 720.527344 526.089844 720.722656 C 525.96875 721.230469 525.847656 721.722656 525.734375 722.21875 C 525.519531 722.265625 525.316406 722.324219 525.101562 722.375 C 523.824219 722.988281 522.0625 723.105469 520.675781 723.398438 C 517.355469 724.089844 514.015625 724.617188 510.664062 725.148438 C 509.558594 725.316406 507.230469 725.488281 508.179688 727.207031 C 508.449219 727.695312 508.878906 728.015625 509.378906 728.234375 C 508.023438 728.324219 506.121094 728.835938 506.347656 730.296875 C 506.4375 730.925781 507.035156 731.207031 507.589844 731.359375 C 508.628906 731.652344 509.710938 731.816406 510.765625 732.035156 C 511.898438 732.25 513.054688 732.5625 514.210938 732.542969 C 515.234375 732.5625 516.25 732.359375 517.253906 732.25 C 518.476562 732.121094 519.707031 732.074219 520.925781 731.988281 C 518.140625 733.15625 515.355469 734.222656 512.25 734.109375 C 511.207031 734.074219 507.449219 733.253906 507.738281 735.378906 C 508.039062 737.574219 512.539062 737.40625 514.027344 737.449219 " fill-opacity="1" fill-rule="nonzero"/><path fill="#29566d" d="M 548.445312 725.476562 C 562.140625 725.222656 575.894531 724.964844 589.460938 722.929688 C 596.535156 721.867188 603.855469 720.796875 609.730469 716.410156 C 613.414062 713.640625 624.726562 697.839844 625.753906 696.28125 L 639.90625 717.292969 C 638.664062 719.550781 626.113281 734.058594 624.109375 735.800781 C 615.644531 743.171875 601.042969 742.9375 592.53125 743.257812 C 586.804688 743.484375 555.125 742.953125 544.882812 738.671875 C 548.152344 734.246094 548.445312 725.476562 548.445312 725.476562 " fill-opacity="1" fill-rule="nonzero"/><path fill="#2a817d" d="M 466.585938 892.953125 C 465.324219 892.953125 464.078125 892.632812 462.972656 892.023438 C 431.613281 874.703125 409.136719 851.542969 394.257812 821.203125 C 382.246094 796.71875 374.957031 767.0625 371.316406 727.851562 C 371.128906 725.824219 371.792969 723.78125 373.136719 722.25 C 374.484375 720.710938 376.425781 719.792969 378.464844 719.710938 C 390.410156 719.269531 399.769531 708.308594 399.769531 694.769531 C 399.769531 692.179688 401.082031 689.816406 403.285156 688.449219 C 405.035156 687.351562 421.726562 677.703125 466.402344 676.597656 L 466.585938 676.59375 L 466.789062 676.597656 C 511.441406 677.703125 528.128906 687.351562 529.886719 688.449219 C 532.082031 689.816406 533.394531 692.179688 533.394531 694.769531 C 533.394531 708.308594 542.75 719.269531 554.699219 719.710938 C 556.738281 719.792969 558.679688 720.710938 560.027344 722.25 C 561.375 723.78125 562.039062 725.824219 561.847656 727.851562 C 558.207031 767.0625 550.921875 796.71875 538.90625 821.203125 C 524.027344 851.542969 501.550781 874.703125 470.191406 892.023438 C 469.085938 892.632812 467.839844 892.953125 466.585938 892.953125 " fill-opacity="1" fill-rule="nonzero"/><path fill="#a2ddd0" d="M 466.585938 889.21875 C 465.960938 889.21875 465.335938 889.070312 464.777344 888.765625 C 434.109375 871.824219 412.136719 849.1875 397.605469 819.5625 C 385.796875 795.496094 378.628906 766.246094 375.035156 727.511719 C 374.933594 726.496094 375.265625 725.476562 375.941406 724.703125 C 376.617188 723.941406 377.582031 723.480469 378.605469 723.4375 C 392.566406 722.917969 403.496094 710.324219 403.496094 694.769531 C 403.496094 693.484375 404.160156 692.289062 405.253906 691.609375 C 405.917969 691.191406 422.0625 681.421875 466.492188 680.324219 L 466.679688 680.324219 C 511.101562 681.421875 527.246094 691.191406 527.910156 691.609375 C 529.003906 692.289062 529.667969 693.484375 529.667969 694.769531 C 529.667969 710.324219 540.601562 722.917969 554.5625 723.4375 C 555.589844 723.480469 556.546875 723.941406 557.222656 724.703125 C 557.902344 725.476562 558.230469 726.496094 558.132812 727.511719 C 554.539062 766.246094 547.367188 795.496094 535.5625 819.5625 C 521.027344 849.1875 499.054688 871.824219 468.386719 888.765625 C 467.828125 889.070312 467.203125 889.21875 466.585938 889.21875 " fill-opacity="1" fill-rule="nonzero"/><path fill="#90d4c5" d="M 466.585938 889.21875 C 465.960938 889.21875 465.335938 889.070312 464.777344 888.765625 C 434.109375 871.824219 412.136719 849.1875 397.605469 819.5625 C 385.796875 795.496094 378.628906 766.246094 375.035156 727.511719 C 375.023438 727.402344 375.015625 727.285156 375.015625 727.175781 C 375.011719 726.273438 375.339844 725.390625 375.941406 724.703125 C 376.617188 723.941406 377.582031 723.480469 378.605469 723.4375 C 392.566406 722.917969 403.496094 710.324219 403.496094 694.769531 C 403.496094 693.484375 404.160156 692.289062 405.253906 691.609375 C 405.917969 691.191406 422.0625 681.421875 466.492188 680.324219 L 466.585938 680.324219 L 466.585938 687.785156 L 466.535156 687.785156 C 434.175781 688.597656 417.578125 694.242188 411.945312 696.628906 C 411.308594 696.894531 410.875 697.496094 410.8125 698.1875 C 409.460938 714.148438 398.863281 727.007812 384.441406 730.1875 C 383.515625 730.386719 382.886719 731.253906 382.984375 732.195312 C 386.648438 767.378906 393.421875 794.097656 404.300781 816.273438 C 417.71875 843.628906 437.785156 864.695312 465.65625 880.691406 C 465.945312 880.859375 466.261719 880.941406 466.585938 880.941406 L 466.585938 889.21875 M 466.585938 876.925781 C 439.859375 861.375 420.578125 840.988281 407.652344 814.632812 C 397.136719 793.203125 390.519531 767.359375 386.867188 733.433594 C 401.71875 729.417969 412.59375 716.121094 414.417969 699.644531 C 420.695312 697.152344 436.675781 692.273438 466.585938 691.507812 L 466.585938 876.925781 " fill-opacity="1" fill-rule="nonzero"/><path fill="#c1ece0" d="M 466.585938 880.941406 L 466.585938 876.925781 C 493.304688 861.375 512.585938 840.988281 525.519531 814.632812 C 536.03125 793.203125 542.644531 767.359375 546.296875 733.433594 C 531.445312 729.417969 520.578125 716.121094 518.746094 699.644531 C 512.476562 697.152344 496.492188 692.273438 466.585938 691.507812 L 466.585938 687.785156 L 466.632812 687.785156 C 498.992188 688.597656 515.585938 694.242188 521.21875 696.628906 C 521.855469 696.894531 522.292969 697.496094 522.351562 698.1875 C 523.703125 714.148438 534.308594 727.015625 548.722656 730.1875 C 549.65625 730.386719 550.277344 731.253906 550.179688 732.195312 C 546.515625 767.378906 539.746094 794.097656 528.863281 816.273438 C 515.445312 843.628906 495.378906 864.695312 467.511719 880.691406 C 467.226562 880.859375 466.902344 880.941406 466.585938 880.941406 " fill-opacity="1" fill-rule="nonzero"/><path fill="#b8e8db" d="M 466.585938 880.941406 C 466.261719 880.941406 465.945312 880.859375 465.65625 880.691406 C 437.785156 864.695312 417.71875 843.628906 404.300781 816.273438 C 393.421875 794.097656 386.648438 767.378906 382.984375 732.195312 C 382.886719 731.253906 383.515625 730.386719 384.441406 730.1875 C 398.863281 727.007812 409.460938 714.148438 410.8125 698.1875 C 410.875 697.496094 411.308594 696.894531 411.945312 696.628906 C 417.578125 694.242188 434.175781 688.597656 466.535156 687.785156 L 466.585938 687.785156 L 466.585938 691.507812 C 436.675781 692.273438 420.695312 697.152344 414.417969 699.644531 C 412.59375 716.121094 401.71875 729.417969 386.867188 733.433594 C 390.519531 767.359375 397.136719 793.203125 407.652344 814.632812 C 420.578125 840.988281 439.859375 861.375 466.585938 876.925781 L 466.585938 880.941406 " fill-opacity="1" fill-rule="nonzero"/><path fill="#2a817d" d="M 486.023438 783.933594 C 486.023438 790.070312 484.253906 794.765625 480.726562 798.042969 C 477.195312 801.304688 472.195312 802.945312 465.734375 802.945312 C 459.277344 802.945312 454.140625 800.796875 450.324219 796.496094 C 446.511719 792.195312 444.605469 786.417969 444.605469 779.152344 L 444.605469 772.3125 C 444.605469 765.285156 446.527344 759.625 450.390625 755.328125 C 454.238281 751.03125 459.355469 748.878906 465.734375 748.878906 C 472.316406 748.878906 477.351562 750.542969 480.847656 753.878906 C 484.335938 757.207031 486.082031 761.878906 486.082031 767.890625 L 476.640625 767.890625 C 476.640625 764.015625 475.710938 761.242188 473.847656 759.566406 C 471.992188 757.894531 469.289062 757.050781 465.734375 757.050781 C 462.019531 757.050781 459.144531 758.414062 457.109375 761.140625 C 455.070312 763.867188 454.027344 767.503906 453.988281 772.070312 L 453.988281 779.515625 C 453.988281 784.234375 455.015625 787.960938 457.074219 790.683594 C 459.136719 793.410156 462.019531 794.765625 465.734375 794.765625 C 469.332031 794.765625 472.035156 793.953125 473.847656 792.324219 C 475.667969 790.683594 476.578125 787.890625 476.578125 783.933594 Z M 502.132812 775.851562 C 502.132812 769.144531 500.621094 762.914062 497.59375 757.160156 C 494.5625 751.398438 490.28125 746.800781 484.753906 743.347656 C 479.222656 739.890625 473.160156 738.164062 466.585938 738.164062 C 460.164062 738.164062 454.203125 739.824219 448.691406 743.132812 C 443.175781 746.441406 438.847656 751.007812 435.699219 756.824219 C 432.550781 762.640625 430.972656 768.984375 430.972656 775.851562 C 430.972656 782.722656 432.539062 789.066406 435.671875 794.875 C 438.796875 800.695312 443.121094 805.285156 448.625 808.660156 C 454.140625 812.035156 460.125 813.722656 466.585938 813.722656 C 473.039062 813.722656 479.050781 812.003906 484.601562 808.574219 C 490.148438 805.136719 494.460938 800.515625 497.527344 794.699219 C 500.597656 788.878906 502.132812 782.601562 502.132812 775.851562 Z M 423.589844 775.882812 C 423.589844 767.730469 425.476562 760.164062 429.25 753.179688 C 433.023438 746.195312 438.253906 740.695312 444.933594 736.679688 C 451.613281 732.664062 458.832031 730.652344 466.585938 730.652344 C 474.335938 730.652344 481.550781 732.664062 488.238281 736.679688 C 494.917969 740.695312 500.140625 746.195312 503.917969 753.179688 C 507.691406 760.164062 509.578125 767.730469 509.578125 775.882812 C 509.578125 784.113281 507.664062 791.734375 503.828125 798.734375 C 499.988281 805.738281 494.753906 811.238281 488.117188 815.234375 C 481.46875 819.230469 474.292969 821.230469 466.585938 821.230469 C 458.789062 821.230469 451.574219 819.210938 444.933594 815.171875 C 438.292969 811.140625 433.078125 805.632812 429.28125 798.644531 C 425.484375 791.664062 423.589844 784.074219 423.589844 775.882812 " fill-opacity="1" fill-rule="nonzero"/><path fill="#ffa18a" d="M 517.394531 748.828125 C 518.277344 748.859375 519.164062 748.839844 520.046875 748.800781 C 519.792969 748.847656 519.53125 748.886719 519.273438 748.925781 C 518.503906 749.066406 516.394531 749.089844 516.019531 750.082031 C 515.585938 751.261719 517.25 751.503906 517.984375 751.628906 C 520.039062 752 522.214844 752.550781 524.3125 752.566406 C 526.582031 752.566406 528.679688 751.625 530.863281 751.140625 C 533.070312 750.675781 535.34375 750.566406 537.59375 750.453125 C 542.390625 750.199219 548.1875 748.527344 552.472656 751.375 C 553.496094 749.023438 556.648438 737.933594 556.582031 737.925781 C 554.992188 737.59375 553.398438 737.691406 551.792969 737.539062 C 550.070312 737.390625 548.367188 737.019531 546.730469 736.464844 C 543.640625 735.425781 541.046875 733.691406 538.554688 731.617188 C 536.738281 730.121094 534.898438 728.804688 532.515625 728.4375 C 531.160156 728.214844 529.742188 728.175781 528.375 728.175781 C 527.574219 728.160156 525.90625 727.980469 525.234375 728.574219 C 524.039062 729.621094 525.789062 730.988281 526.738281 731.382812 C 527.273438 731.585938 527.835938 731.695312 528.390625 731.84375 C 528.59375 731.894531 529.597656 732.074219 529.691406 732.273438 C 529.558594 732.769531 529.429688 733.265625 529.304688 733.757812 C 529.09375 733.808594 528.882812 733.867188 528.671875 733.90625 C 527.390625 734.507812 525.628906 734.589844 524.234375 734.867188 C 520.902344 735.519531 517.554688 735.996094 514.199219 736.476562 C 513.09375 736.640625 510.761719 736.773438 511.679688 738.492188 C 511.949219 738.996094 512.378906 739.320312 512.871094 739.550781 C 511.519531 739.621094 509.605469 740.109375 509.8125 741.574219 C 509.898438 742.203125 510.488281 742.484375 511.03125 742.652344 C 512.074219 742.964844 513.152344 743.136719 514.210938 743.375 C 515.335938 743.613281 516.492188 743.917969 517.644531 743.925781 C 518.671875 743.957031 519.683594 743.769531 520.695312 743.675781 C 521.914062 743.566406 523.148438 743.53125 524.367188 743.472656 C 521.566406 744.601562 518.765625 745.628906 515.660156 745.460938 C 514.613281 745.421875 510.875 744.546875 511.128906 746.667969 C 511.402344 748.867188 515.910156 748.765625 517.394531 748.828125 " fill-opacity="1" fill-rule="nonzero"/><path fill="#ffa18a" d="M 700.25 935.304688 L 676.941406 937.121094 C 676.886719 934.429688 676.796875 931.753906 676.574219 929.074219 C 675.808594 919.882812 674.050781 910.714844 672.15625 901.691406 C 670.324219 892.980469 667.855469 884.519531 664.066406 876.46875 C 662.042969 872.183594 659.863281 867.925781 658.511719 863.375 C 657.46875 859.832031 656.988281 856.203125 657.003906 852.554688 L 690.160156 849.972656 C 690.269531 856.535156 690.398438 863.074219 693.019531 869.195312 C 694.449219 872.511719 695.96875 875.730469 697.082031 879.191406 C 698.164062 882.523438 698.984375 885.9375 699.597656 889.382812 C 702.183594 903.882812 701.167969 918.804688 700.375 933.414062 C 700.335938 934.042969 700.289062 934.679688 700.25 935.304688 " fill-opacity="1" fill-rule="nonzero"/><path fill="#ffd471" d="M 676.605469 937.15625 C 676.175781 934.875 675.738281 932.574219 675.339844 930.3125 C 675.339844 930.3125 682.476562 930.53125 701.648438 927.972656 C 701.648438 927.972656 701.609375 931.207031 701.550781 935.203125 L 676.605469 937.15625 " fill-opacity="1" fill-rule="nonzero"/><path fill="#12252e" d="M 652.820312 985.988281 C 653.15625 982.96875 655.085938 980.808594 657.3125 979.039062 C 661.59375 975.660156 675.367188 970.542969 676.765625 969.082031 C 679.449219 966.273438 679.660156 962.019531 679.238281 958.324219 C 678.355469 950.484375 676.738281 942.699219 675.453125 934.945312 C 675.453125 934.945312 685.574219 936.585938 702.339844 932.519531 C 702.339844 932.519531 702.289062 946.644531 702.253906 953.695312 C 702.238281 957.140625 702.203125 960.613281 702.738281 964.027344 C 703.207031 967.023438 704.085938 969.9375 704.925781 972.847656 C 705.757812 975.734375 706.582031 978.664062 706.914062 981.667969 C 706.96875 982.199219 707.046875 983.316406 707.046875 983.316406 C 705.316406 985.359375 700.875 985.546875 698.769531 985.621094 C 693.484375 985.800781 688.335938 985.394531 683.035156 986.15625 C 676.230469 987.132812 669.53125 988.78125 662.691406 989.566406 C 660.34375 989.84375 658.109375 989.992188 655.953125 989.820312 C 653.167969 989.316406 652.734375 986.816406 652.820312 985.988281 " fill-opacity="1" fill-rule="nonzero"/><path fill="#2f627c" d="M 550.144531 737.164062 C 563.851562 736.917969 577.597656 736.667969 591.171875 734.640625 C 598.246094 733.578125 605.566406 732.507812 611.441406 728.101562 C 615.125 725.351562 624.824219 712.460938 625.847656 710.902344 L 641.609375 729.011719 C 640.375 731.242188 627.824219 745.761719 625.8125 747.5 C 617.34375 754.886719 602.75 754.628906 594.242188 754.976562 C 588.507812 755.1875 556.835938 754.652344 546.597656 750.363281 C 549.855469 745.957031 550.144531 737.164062 550.144531 737.164062 " fill-opacity="1" fill-rule="nonzero"/><path fill="#ffa18a" d="M 671.0625 643.996094 C 671.75 640.863281 672.371094 638.777344 672.371094 638.777344 C 672.371094 638.777344 667.355469 637.460938 666.902344 632.53125 C 666.902344 632.445312 666.007812 605.59375 657.097656 603.609375 C 646.535156 601.261719 641.339844 603.566406 638.027344 613.75 C 636.628906 618.074219 634.15625 619.339844 631.621094 621.046875 C 630.621094 621.710938 631.054688 623.515625 632.378906 623.566406 L 633.925781 623.839844 C 634.277344 623.894531 634.507812 624.238281 634.46875 624.578125 C 634.078125 627.585938 633.988281 630.445312 634.324219 633.046875 C 635.121094 639.136719 633.671875 645.234375 643.945312 646.246094 C 645.152344 646.355469 646.328125 646.414062 647.488281 646.421875 L 642.164062 666.269531 C 645.382812 671.589844 659.585938 664.410156 663.332031 663.695312 C 663.949219 663.582031 672.316406 661.152344 672.253906 660.523438 C 671.605469 654.507812 669.988281 648.871094 671.0625 643.996094 " fill-opacity="1" fill-rule="nonzero"/><path fill="#12252e" d="M 673.699219 651.972656 C 675.199219 652.867188 676.796875 653.605469 678.488281 654.015625 C 681.804688 654.8125 684.707031 653.289062 686.574219 650.511719 C 688.265625 647.992188 688.546875 644.820312 687.773438 641.945312 C 687.253906 639.992188 685.773438 635.21875 679.933594 633.988281 C 679.933594 633.988281 688.660156 628.640625 688.183594 614.105469 C 688.011719 608.796875 685.128906 598.796875 677.5625 593.453125 C 672.480469 589.851562 666.046875 587.875 659.847656 588.113281 C 654.699219 588.308594 646.695312 588.558594 643.253906 592.863281 C 638.878906 598.34375 640.921875 608.199219 646.804688 612.132812 C 648.164062 613.042969 649.925781 613.542969 650.898438 614.941406 C 651.863281 616.3125 651.550781 618.128906 651.949219 619.714844 C 652.730469 622.832031 654.703125 625.421875 656.316406 628.125 C 658.125 631.175781 658.796875 634.445312 660.050781 637.726562 C 661.042969 640.296875 662.667969 642.542969 664.585938 644.519531 C 666.902344 646.882812 669.554688 648.980469 672.226562 650.9375 C 672.699219 651.285156 673.203125 651.621094 673.699219 651.972656 " fill-opacity="1" fill-rule="nonzero"/><path fill="#2f627c" d="M 678.425781 730.699219 C 676.1875 723.0625 678.238281 715.148438 679.660156 707.539062 C 680.925781 700.769531 682.144531 693.964844 682.257812 687.050781 C 682.429688 676.4375 679.644531 664.925781 671.835938 657.363281 C 671.835938 657.363281 662.226562 661.621094 657.582031 662.359375 C 652.71875 663.128906 643.339844 661.886719 643.339844 661.886719 C 633.789062 673.878906 633.285156 677.03125 627.910156 690.535156 C 627.863281 690.648438 622.582031 700.152344 622.75 722.007812 C 622.792969 725.886719 623.003906 729.777344 623.445312 733.691406 C 624.144531 739.925781 625.039062 746.140625 625.15625 752.410156 C 625.265625 759.335938 624.558594 766.246094 623.523438 773.074219 C 619.503906 799.566406 613.183594 825.859375 606.265625 851.722656 C 606.144531 852.15625 660.960938 856.015625 671.328125 856.925781 C 690.511719 858.597656 695.777344 856.464844 713.089844 849.144531 C 710.273438 812.535156 680.191406 736.796875 678.425781 730.699219 " fill-opacity="1" fill-rule="nonzero"/><path fill="#254d62" d="M 623.75 714.582031 C 629.503906 708.40625 634.296875 701.433594 639.359375 694.6875 C 641.988281 691.1875 644.691406 687.71875 647.683594 684.492188 C 650.648438 681.296875 654.105469 678.316406 658.4375 677.242188 C 663.117188 676.113281 668.601562 677.8125 670.347656 682.664062 C 670.433594 682.914062 670.84375 682.816406 670.75 682.554688 C 669.59375 679.34375 666.632812 677.140625 663.292969 676.59375 C 659.21875 675.933594 655.136719 677.585938 651.925781 679.996094 C 648.226562 682.761719 645.234375 686.476562 642.378906 690.070312 C 639.511719 693.691406 636.820312 697.417969 634.082031 701.117188 C 630.730469 705.65625 627.296875 710.144531 623.449219 714.277344 C 623.265625 714.46875 623.566406 714.777344 623.75 714.582031 " fill-opacity="1" fill-rule="nonzero"/><path fill="#254d62" d="M 625.34375 748.28125 C 632.988281 743.136719 640.59375 737.9375 647.769531 732.15625 C 654.917969 726.398438 661.894531 720.042969 667.410156 712.640625 C 670.328125 708.738281 672.496094 704.125 671.75 699.140625 C 671.703125 698.886719 671.300781 699.003906 671.339844 699.257812 C 672.070312 704.121094 669.882812 708.625 667.042969 712.441406 C 664.324219 716.078125 661.175781 719.429688 657.933594 722.605469 C 651.636719 728.789062 644.671875 734.269531 637.507812 739.402344 C 633.433594 742.304688 629.292969 745.125 625.125 747.910156 C 624.90625 748.078125 625.113281 748.429688 625.34375 748.28125 " fill-opacity="1" fill-rule="nonzero"/></svg>