<svg xmlns="http://www.w3.org/2000/svg" xmlns:xlink="http://www.w3.org/1999/xlink" width="1080" zoomAndPan="magnify" viewBox="0 0 810 1012.49997" height="1350" preserveAspectRatio="xMidYMid meet" version="1.0"><defs><clipPath id="edf903df4a"><path d="M 1 475 L 808 475 L 808 1012 L 1 1012 Z M 1 475 " clip-rule="nonzero"/></clipPath><clipPath id="37fbfdd177"><path d="M 366.8125 858 L 697 858 L 697 1012 L 366.8125 1012 Z M 366.8125 858 " clip-rule="nonzero"/></clipPath><clipPath id="a871095127"><path d="M 366.8125 858 L 697 858 L 697 987 L 366.8125 987 Z M 366.8125 858 " clip-rule="nonzero"/></clipPath><clipPath id="fc4b0c8a57"><path d="M 366.8125 884 L 697 884 L 697 1012 L 366.8125 1012 Z M 366.8125 884 " clip-rule="nonzero"/></clipPath><clipPath id="d09abc3b7c"><path d="M 366.8125 964 L 374 964 L 374 968 L 366.8125 968 Z M 366.8125 964 " clip-rule="nonzero"/></clipPath><clipPath id="5f00c2fccb"><path d="M 464 827.289062 L 475 827.289062 L 475 866 L 464 866 Z M 464 827.289062 " clip-rule="nonzero"/></clipPath><clipPath id="71b01c6f08"><path d="M 474 827.289062 L 485 827.289062 L 485 866 L 474 866 Z M 474 827.289062 " clip-rule="nonzero"/></clipPath></defs><path fill="#b0e7e1" d="M 808.347656 814.820312 L 808.347656 921.445312 C 808.347656 925.769531 804.851562 929.265625 800.527344 929.25 L 375.046875 928.96875 L 367.292969 928.96875 L 367.292969 903.988281 C 367.292969 878.476562 387.96875 857.800781 413.476562 857.800781 L 491.046875 857.800781 C 519.277344 857.800781 542.164062 834.917969 542.164062 806.683594 L 542.164062 754.328125 C 542.164062 726.097656 565.050781 703.210938 593.28125 703.210938 L 742.445312 703.210938 C 748.1875 703.210938 752.839844 707.863281 752.839844 713.605469 L 752.839844 759.3125 C 752.859375 759.3125 808.347656 762.296875 808.347656 814.820312 Z M 300.761719 644.417969 L 299.773438 634.980469 C 299.609375 633.347656 298.222656 632.109375 296.589844 632.109375 L 269.941406 632.109375 C 268.175781 632.109375 266.722656 633.546875 266.722656 635.328125 L 266.722656 683.675781 L 238.507812 625.9375 L 249.199219 607.457031 L 208.675781 579.902344 C 201.546875 584.109375 182.734375 581.207031 167.820312 595.792969 C 152.902344 610.378906 86.769531 678.476562 68.621094 703.0625 C 50.46875 727.648438 56.292969 746.226562 56.292969 746.226562 C 56.292969 746.226562 119.210938 748.089844 180.671875 749.773438 C 181.863281 749.3125 182.902344 748.917969 184.089844 748.453125 C 192.355469 740.371094 202.75 726.953125 207.386719 707.632812 C 207.386719 707.632812 225.835938 747.300781 243.820312 747.761719 C 247.878906 747.859375 250.4375 749.363281 251.957031 751.605469 C 271.625 752.066406 286.789062 752.363281 293.289062 752.363281 C 322.792969 752.363281 312.414062 685.902344 311.125 670.339844 C 309.839844 654.796875 300.761719 644.417969 300.761719 644.417969 Z M 150.394531 834.488281 L 39.480469 834.488281 C 34.347656 834.488281 30.191406 838.644531 30.191406 843.777344 L 30.191406 853.464844 L 159.386719 853.464844 L 159.683594 844.058594 C 159.851562 838.828125 155.640625 834.488281 150.394531 834.488281 Z M 150.394531 834.488281 " fill-opacity="1" fill-rule="nonzero"/><path fill="#00bfa8" d="M 679.695312 857.785156 L 491.0625 857.785156 C 519.292969 857.785156 542.179688 834.898438 542.179688 806.667969 L 542.179688 754.3125 C 542.179688 726.082031 565.066406 703.195312 593.300781 703.195312 L 742.460938 703.195312 C 748.203125 703.195312 752.859375 707.847656 752.859375 713.589844 L 752.859375 759.296875 C 719.148438 759.296875 691.839844 786.621094 691.839844 820.3125 L 691.839844 845.640625 C 691.824219 852.359375 686.394531 857.785156 679.695312 857.785156 Z M 353.863281 652.273438 C 353.863281 652.273438 324.160156 664.039062 311.125 670.359375 C 314.394531 698.886719 312.296875 728.441406 312.296875 728.441406 C 312.296875 728.441406 334.753906 716.59375 344.375 709.199219 C 353.992188 701.792969 359.421875 686.25 359.421875 686.25 L 370.03125 679.335938 Z M 772.789062 921.394531 C 739.144531 921.394531 495.566406 927.46875 433.90625 929.019531 C 432.023438 928.871094 429.828125 928.789062 427.253906 928.789062 C 398.957031 928.789062 379.171875 919.792969 367.292969 911.925781 L 367.292969 928.96875 L 375.046875 928.96875 L 433.921875 929 L 800.527344 929.25 C 804.851562 929.25 808.347656 925.75 808.347656 921.445312 L 808.347656 878.742188 C 805.972656 896.082031 798.152344 921.394531 772.789062 921.394531 Z M 180.691406 749.773438 C 181.878906 749.3125 182.917969 748.917969 184.105469 748.453125 C 190.539062 742.167969 198.246094 732.628906 203.527344 719.628906 C 191.613281 724.628906 147.855469 742.085938 105.316406 747.664062 C 127.246094 748.289062 154.089844 749.046875 180.691406 749.773438 Z M 150.394531 834.488281 L 109.921875 834.488281 C 106.324219 840.691406 98.089844 850.460938 81.144531 853.464844 L 159.386719 853.464844 L 159.683594 844.058594 C 159.851562 838.828125 155.640625 834.488281 150.394531 834.488281 Z M 150.394531 834.488281 " fill-opacity="1" fill-rule="nonzero"/><path fill="#4f3d56" d="M 706.441406 766.867188 C 701.144531 807.921875 672.402344 833.316406 672.402344 833.316406 L 632.585938 788.566406 L 604.847656 755.894531 C 604.847656 755.894531 609.800781 745.730469 616.925781 729.808594 C 624.070312 713.886719 631.925781 700.4375 651.957031 689.746094 C 672.003906 679.039062 684.992188 683.574219 695.453125 696.675781 C 703.851562 707.152344 710.847656 732.679688 706.441406 766.867188 Z M 268.671875 745.699219 C 231.460938 745.699219 56.507812 745.699219 56.507812 745.699219 C 56.507812 745.699219 35.933594 771.027344 41.460938 800.710938 C 47.003906 830.394531 62.035156 834.355469 62.035156 834.355469 L 148.332031 834.355469 C 148.332031 834.355469 208.492188 824.851562 246.097656 812.988281 C 246.097656 812.988281 235.800781 874.335938 233.03125 921.839844 L 284.214844 921.410156 C 284.214844 921.410156 308.238281 828.019531 314.574219 799.917969 C 320.910156 771.820312 305.878906 745.699219 268.671875 745.699219 Z M 411.429688 626.914062 L 413.394531 634.898438 L 424.78125 650.523438 L 429.054688 652.949219 L 433.292969 651.761719 L 417.933594 631.269531 Z M 438.492188 659.816406 L 433.425781 662.535156 L 454.546875 692.222656 C 455.40625 693.425781 457.039062 693.789062 458.324219 693.078125 C 459.84375 692.238281 460.289062 690.257812 459.28125 688.839844 Z M 167.324219 975.46875 C 157.359375 975.46875 149.289062 983.535156 149.289062 993.5 C 149.289062 1003.46875 157.359375 1011.535156 167.324219 1011.535156 C 177.292969 1011.535156 185.359375 1003.46875 185.359375 993.5 C 185.359375 983.550781 177.292969 975.46875 167.324219 975.46875 Z M 24.613281 975.46875 C 14.648438 975.46875 6.578125 983.535156 6.578125 993.5 C 6.578125 1003.46875 14.648438 1011.535156 24.613281 1011.535156 C 34.578125 1011.535156 42.648438 1003.46875 42.648438 993.5 C 42.648438 983.550781 34.578125 975.46875 24.613281 975.46875 Z M 98.601562 975.566406 L 91.917969 975.566406 C 87.84375 975.566406 84.527344 978.882812 84.527344 982.957031 L 84.527344 1004.523438 C 84.527344 1008.601562 87.84375 1011.917969 91.917969 1011.917969 L 98.601562 1011.917969 C 102.675781 1011.917969 105.992188 1008.601562 105.992188 1004.523438 L 105.992188 982.957031 C 105.992188 978.867188 102.675781 975.566406 98.601562 975.566406 Z M 98.601562 975.566406 " fill-opacity="1" fill-rule="nonzero"/><path fill="#da8d86" d="M 675.917969 662.058594 C 670.585938 669.367188 670.6875 673.824219 672.269531 678.34375 C 673.375 681.496094 674.316406 684.085938 674.316406 684.085938 C 674.316406 684.085938 657.105469 684.796875 641.941406 696.3125 L 637.734375 683.953125 C 637.734375 683.953125 615.542969 687.039062 605.425781 678.0625 C 595.3125 669.070312 598.117188 655.03125 595.3125 654.46875 C 592.507812 653.90625 586.320312 653.90625 590.824219 647.4375 C 595.3125 640.972656 594.75 640.410156 595.03125 630.59375 C 595.3125 620.757812 603.464844 592.953125 629.863281 588.1875 C 656.265625 583.417969 675.371094 589.308594 685.207031 608.976562 C 695.023438 628.644531 681.261719 654.765625 675.917969 662.058594 Z M 602.65625 760.515625 C 602.65625 760.515625 588.792969 708.492188 586.8125 701.429688 C 584.835938 694.367188 577.492188 689.269531 570.691406 689.269531 C 563.910156 689.269531 540.152344 689.546875 540.152344 689.546875 C 540.152344 689.546875 533.371094 683.886719 530.53125 682.1875 C 527.710938 680.488281 527.132812 685.011719 529.691406 687.847656 C 532.230469 690.671875 536.753906 697.46875 540.992188 700.007812 C 545.234375 702.550781 556.535156 705.667969 559.09375 706.792969 C 561.632812 707.929688 561.914062 711.59375 561.914062 715.273438 C 561.914062 718.953125 563.894531 759.957031 566.4375 777.199219 C 568.976562 794.441406 581.980469 813.679688 605.738281 809.144531 C 629.484375 804.621094 642.503906 776.902344 642.503906 776.902344 L 605.738281 755.136719 Z M 452.453125 811.140625 C 435.042969 825.132812 427.585938 824.191406 427.585938 824.191406 C 427.585938 824.191406 419.1875 823.25 411.117188 822.328125 C 403.03125 821.386719 392.769531 821.699219 394.335938 838.183594 C 395.886719 854.652344 405.210938 857.769531 405.210938 857.769531 L 462.714844 857.769531 L 509.34375 839.125 C 513.386719 850.625 522.710938 857.769531 522.710938 857.769531 L 549.753906 857.769531 L 549.753906 772.28125 C 509.808594 770.828125 469.859375 797.148438 452.453125 811.140625 Z M 304.195312 574.324219 C 305.121094 577.082031 307.265625 580.613281 307.265625 580.613281 C 307.265625 580.613281 292.546875 585.511719 286.242188 587.824219 C 279.957031 590.117188 275.351562 594.71875 275.203125 600.5625 C 275.054688 606.386719 275.46875 631.894531 275.46875 631.894531 L 296.324219 631.746094 L 295.433594 606.78125 C 295.351562 604.503906 296.621094 602.394531 298.699219 601.417969 C 304.078125 598.910156 314.160156 594.191406 316.160156 593.1875 C 318.914062 591.800781 321.519531 588.121094 318.617188 583.054688 C 315.695312 577.988281 311.554688 574.308594 309.410156 572.3125 C 307.265625 570.347656 303.273438 571.570312 304.195312 574.324219 Z M 242.121094 603.796875 L 250.503906 592.722656 C 251.871094 590.910156 254.019531 589.851562 256.277344 589.851562 L 272.777344 589.851562 C 285.914062 589.851562 293.882812 582.890625 295.285156 572.527344 C 296.210938 565.628906 296.871094 561.734375 297.214844 559.90625 C 297.363281 559.078125 297.941406 558.417969 298.71875 558.121094 L 302.792969 556.636719 C 304.261719 556.109375 304.804688 554.328125 303.914062 553.058594 L 298.238281 545.054688 C 297.925781 544.609375 297.761719 544.0625 297.808594 543.519531 C 298.058594 540.449219 298.734375 529.378906 296.953125 517.730469 C 294.855469 504.019531 284.429688 487.1875 260.007812 483.144531 C 235.585938 479.101562 214.136719 485.835938 203.378906 507.945312 C 192.621094 530.054688 218.441406 570.976562 218.441406 570.976562 L 211 581.15625 Z M 320.117188 1002.496094 C 315.5625 1000.382812 306.441406 995.828125 296.605469 991.257812 C 286.769531 986.703125 270.289062 979.675781 272.035156 968.800781 C 273.785156 957.925781 284.246094 921.261719 284.246094 921.261719 L 243.160156 921.296875 C 243.160156 921.296875 235.539062 960.023438 228.871094 980.367188 C 222.207031 1000.730469 225.027344 1011.621094 225.027344 1011.621094 L 253.109375 1011.621094 L 253.390625 1004.773438 C 253.390625 1004.773438 264.332031 1011.257812 276.953125 1011.257812 C 289.578125 1011.257812 308.882812 1011.257812 316.257812 1011.257812 C 323.617188 1011.273438 324.671875 1004.605469 320.117188 1002.496094 Z M 420.425781 663.230469 C 423.246094 663.941406 428.359375 665.175781 431.015625 663.757812 C 433.65625 662.339844 438.953125 659.699219 443.558594 657.042969 C 448.144531 654.402344 450.273438 653.691406 450.964844 650.160156 C 451.675781 646.628906 448.492188 645.757812 448.492188 645.757812 C 448.492188 645.757812 447.074219 642.042969 443.90625 642.933594 C 441.660156 643.5625 434.582031 646.269531 430.292969 647.820312 L 432.832031 651.777344 L 429.039062 652.96875 L 424.765625 650.542969 L 422.125 646.351562 C 417.980469 644.023438 411.976562 640.609375 408 638.148438 C 401.414062 634.074219 393.875 634.699219 387.292969 637.835938 C 380.707031 640.972656 353.863281 652.289062 353.863281 652.289062 L 368.167969 676.644531 L 398.890625 658.113281 C 398.875 658.097656 417.601562 662.519531 420.425781 663.230469 Z M 420.425781 663.230469 " fill-opacity="1" fill-rule="nonzero"/><g clip-path="url(#edf903df4a)"><path fill="#27407e" d="M 807.820312 937.433594 L 807.820312 1012.03125 L 366.582031 1012.03125 L 366.582031 937.433594 C 366.582031 932.765625 370.378906 928.96875 375.046875 928.96875 L 799.355469 928.96875 C 804.023438 928.96875 807.820312 932.765625 807.820312 937.433594 Z M 548.996094 791.703125 C 546.023438 792.015625 538.617188 793.070312 531.160156 796.386719 L 527.015625 787.839844 C 526.800781 787.410156 526.289062 787.230469 525.863281 787.445312 C 525.433594 787.660156 525.25 788.171875 525.464844 788.601562 L 529.605469 797.128906 C 524.972656 799.40625 520.433594 802.59375 517.066406 807.0625 C 505.269531 822.804688 507.53125 835.757812 508.503906 839.355469 C 508.601562 839.734375 508.949219 840 509.34375 840 C 509.425781 840 509.492188 839.980469 509.574219 839.964844 C 510.039062 839.832031 510.300781 839.371094 510.1875 838.910156 C 509.261719 835.511719 507.132812 823.21875 518.453125 808.121094 C 526.949219 796.800781 543.980469 794.0625 548.996094 793.484375 L 548.996094 858.164062 C 548.996094 858.164062 595.988281 858.164062 626.941406 858.164062 C 657.898438 858.164062 672.367188 833.347656 672.367188 833.347656 C 672.367188 833.347656 651.875 808.8125 634.285156 789.820312 C 628.082031 797.707031 618.445312 806.765625 605.757812 809.175781 C 582.011719 813.695312 568.992188 794.472656 566.453125 777.230469 C 566.222656 775.628906 565.992188 773.816406 565.757812 771.851562 C 555.875 771.96875 548.996094 772.296875 548.996094 772.296875 Z M 614.632812 603.351562 L 619.582031 601.699219 C 619.582031 601.699219 618.414062 621.515625 625.722656 631.1875 C 633.03125 640.855469 640.339844 638.496094 640.339844 638.496094 L 641.511719 627.175781 C 641.511719 627.175781 653.3125 621.285156 657.089844 634.488281 C 659.351562 642.390625 656.199219 648.015625 653.3125 651.265625 C 651.3125 653.511719 651.429688 656.925781 653.460938 659.136719 C 658.902344 665.0625 668.789062 674.152344 675.023438 669.878906 C 683.984375 663.742188 706.640625 638.742188 707.347656 620.328125 C 708.058594 601.929688 695.320312 593.664062 695.320312 593.664062 C 693.441406 572.660156 669.367188 559.921875 637.289062 567.246094 C 605.195312 574.574219 589.867188 592.261719 595.296875 599.820312 C 600.722656 607.359375 614.632812 603.351562 614.632812 603.351562 Z M 601.996094 639.355469 C 601.996094 640.625 603.015625 641.648438 604.289062 641.648438 C 605.558594 641.648438 606.582031 640.625 606.582031 639.355469 C 606.582031 638.082031 605.558594 637.058594 604.289062 637.058594 C 603.015625 637.058594 601.996094 638.082031 601.996094 639.355469 Z M 612.160156 628.199219 C 612.421875 628.199219 612.671875 628.085938 612.851562 627.851562 C 613.148438 627.472656 613.066406 626.929688 612.6875 626.648438 C 605.675781 621.320312 598.695312 626.152344 598.628906 626.203125 C 598.234375 626.484375 598.148438 627.011719 598.429688 627.40625 C 598.710938 627.804688 599.238281 627.886719 599.636719 627.621094 C 599.882812 627.457031 605.65625 623.480469 611.648438 628.035156 C 611.796875 628.132812 611.976562 628.199219 612.160156 628.199219 Z M 604.320312 660.835938 C 605.527344 660.835938 610.972656 660.539062 613.511719 655.34375 C 613.726562 654.914062 613.542969 654.402344 613.117188 654.1875 C 612.6875 653.988281 612.175781 654.15625 611.960938 654.582031 C 609.667969 659.285156 604.402344 659.121094 604.1875 659.105469 C 603.742188 659.089844 603.316406 659.453125 603.28125 659.929688 C 603.265625 660.410156 603.628906 660.804688 604.105469 660.835938 C 604.125 660.835938 604.207031 660.835938 604.320312 660.835938 Z M 605.328125 755.894531 L 642.105469 777.675781 L 651.230469 782.808594 C 651.363281 782.890625 651.511719 782.925781 651.660156 782.925781 C 651.957031 782.925781 652.238281 782.777344 652.402344 782.511719 C 652.601562 782.199219 671.742188 751.441406 673.886719 747.792969 C 675.667969 744.757812 678.621094 745.550781 678.753906 745.582031 C 679.199219 745.714844 679.695312 745.453125 679.828125 744.988281 C 679.957031 744.527344 679.695312 744.050781 679.234375 743.917969 C 677.730469 743.472656 674.367188 743.539062 672.386719 746.902344 C 670.421875 750.238281 654.25 776.242188 651.363281 780.878906 L 642.980469 776.160156 L 606.21875 754.394531 C 605.804688 754.148438 605.277344 754.277344 605.03125 754.691406 C 604.78125 755.121094 604.914062 755.648438 605.328125 755.894531 Z M 745.960938 802.824219 C 745.960938 800.25 748.054688 798.152344 750.628906 798.152344 C 753.203125 798.152344 755.300781 800.25 755.300781 802.824219 C 755.300781 805.398438 753.203125 807.492188 750.628906 807.492188 C 748.054688 807.492188 745.960938 805.398438 745.960938 802.824219 Z M 747.691406 802.824219 C 747.691406 804.441406 749.011719 805.761719 750.628906 805.761719 C 752.246094 805.761719 753.566406 804.441406 753.566406 802.824219 C 753.566406 801.207031 752.246094 799.886719 750.628906 799.886719 C 749.011719 799.886719 747.691406 801.207031 747.691406 802.824219 Z M 462.566406 855.9375 C 462.085938 856.019531 461.773438 856.464844 461.855469 856.945312 C 461.921875 857.355469 462.300781 857.652344 462.714844 857.652344 C 462.765625 857.652344 462.8125 857.652344 462.863281 857.636719 C 468.589844 856.632812 474.183594 851.945312 472.730469 841.746094 C 471.3125 831.878906 457.648438 830.957031 457.070312 830.921875 C 456.59375 830.890625 456.179688 831.253906 456.164062 831.730469 C 456.148438 832.210938 456.496094 832.625 456.972656 832.640625 C 457.105469 832.65625 469.808594 833.496094 471.015625 841.980469 C 472.101562 849.617188 468.953125 854.832031 462.566406 855.9375 Z M 399.585938 848.976562 C 399.105469 848.859375 398.644531 849.140625 398.527344 849.601562 C 398.414062 850.0625 398.691406 850.542969 399.15625 850.65625 L 405.09375 852.144531 C 405.160156 852.160156 405.226562 852.175781 405.308594 852.175781 C 405.425781 852.175781 405.507812 852.109375 405.605469 852.078125 C 406.496094 853.992188 407.621094 855.886719 409.039062 857.71875 C 409.203125 857.933594 409.46875 858.050781 409.730469 858.050781 C 409.914062 858.050781 410.09375 857.984375 410.261719 857.867188 C 410.640625 857.570312 410.707031 857.027344 410.425781 856.648438 C 402.109375 845.855469 404.320312 831.816406 404.335938 831.683594 C 404.371094 831.453125 404.320312 831.203125 404.171875 831.023438 C 404.039062 830.839844 403.824219 830.710938 403.578125 830.675781 L 396.945312 829.882812 C 396.480469 829.816406 396.035156 830.164062 395.988281 830.644531 C 395.9375 831.121094 396.269531 831.550781 396.746094 831.601562 L 402.503906 832.292969 C 402.390625 833.347656 402.242188 835.230469 402.324219 837.640625 L 396.398438 836.152344 C 395.9375 836.039062 395.460938 836.320312 395.34375 836.78125 C 395.226562 837.242188 395.507812 837.722656 395.972656 837.835938 L 401.910156 839.320312 C 401.976562 839.339844 402.058594 839.355469 402.125 839.355469 C 402.222656 839.355469 402.308594 839.289062 402.40625 839.257812 C 402.503906 840.558594 402.667969 841.996094 402.949219 843.480469 L 397.339844 842.078125 C 396.878906 841.960938 396.398438 842.242188 396.285156 842.703125 C 396.167969 843.167969 396.449219 843.644531 396.910156 843.761719 L 402.851562 845.246094 C 402.917969 845.261719 402.984375 845.277344 403.066406 845.277344 C 403.148438 845.277344 403.214844 845.230469 403.28125 845.195312 C 403.660156 846.847656 404.171875 848.546875 404.847656 850.277344 Z M 648.804688 683.542969 C 647.683594 680.65625 645.109375 681.972656 634.5 684.300781 C 636.496094 684.152344 637.71875 683.988281 637.71875 683.988281 L 640.574219 692.335938 C 645.011719 689.25 649.679688 685.769531 648.804688 683.542969 Z M 543.367188 697.914062 C 546.71875 698.476562 557.046875 699.859375 557.144531 699.878906 C 557.179688 699.878906 557.230469 699.878906 557.261719 699.878906 C 557.691406 699.878906 558.054688 699.5625 558.121094 699.136719 C 558.1875 698.65625 557.855469 698.226562 557.378906 698.160156 C 557.277344 698.144531 546.964844 696.757812 543.648438 696.199219 C 542.378906 695.984375 541.769531 694.796875 541.816406 693.773438 C 541.898438 692.335938 543.121094 691.429688 545.085938 691.332031 C 545.5625 691.3125 545.925781 690.902344 545.910156 690.421875 C 545.894531 689.945312 545.515625 689.582031 545.003906 689.597656 C 541.535156 689.777344 540.183594 691.90625 540.085938 693.671875 C 539.984375 695.753906 541.386719 697.566406 543.367188 697.914062 Z M 596.449219 771.09375 C 596.582031 771.175781 596.730469 771.207031 596.894531 771.207031 C 597.191406 771.207031 597.472656 771.058594 597.636719 770.78125 L 603.414062 760.945312 C 603.660156 760.53125 603.511719 760.003906 603.101562 759.757812 C 602.6875 759.511719 602.160156 759.660156 601.910156 760.070312 L 596.136719 769.90625 C 595.890625 770.335938 596.039062 770.863281 596.449219 771.09375 Z M 320.117188 1002.496094 C 315.5625 1000.382812 306.441406 995.828125 296.605469 991.257812 C 295.46875 990.730469 294.230469 990.152344 292.941406 989.558594 L 276.226562 996.785156 L 228.492188 981.621094 C 222.355469 1001.15625 225.027344 1011.621094 225.027344 1011.621094 L 253.109375 1011.621094 L 253.390625 1004.773438 C 253.390625 1004.773438 264.332031 1011.257812 276.953125 1011.257812 C 289.578125 1011.257812 308.882812 1011.257812 316.257812 1011.257812 C 323.617188 1011.273438 324.671875 1004.605469 320.117188 1002.496094 Z M 290.945312 542.167969 C 292.085938 542.167969 293.007812 541.242188 293.007812 540.105469 C 293.007812 538.964844 292.085938 538.042969 290.945312 538.042969 C 289.808594 538.042969 288.882812 538.964844 288.882812 540.105469 C 288.898438 541.257812 289.808594 542.167969 290.945312 542.167969 Z M 281.539062 564.476562 C 285.632812 567.363281 290.402344 566.949219 290.597656 566.933594 C 291.078125 566.882812 291.425781 566.472656 291.375 565.992188 C 291.324219 565.515625 290.929688 565.167969 290.433594 565.21875 C 290.382812 565.21875 286.09375 565.582031 282.53125 563.074219 C 279.578125 560.992188 277.960938 562.347656 277.546875 562.824219 C 276.457031 564.03125 276.558594 566.09375 277.792969 567.511719 C 279.609375 569.589844 283.304688 571.71875 288.421875 571.71875 C 288.769531 571.71875 289.113281 571.703125 289.476562 571.6875 C 289.957031 571.652344 290.320312 571.257812 290.285156 570.777344 C 290.253906 570.300781 289.875 569.921875 289.378906 569.96875 C 284.328125 570.25 280.683594 568.203125 279.097656 566.390625 C 278.390625 565.5625 278.390625 564.492188 278.835938 563.996094 C 279.3125 563.4375 280.320312 563.617188 281.539062 564.476562 Z M 307.414062 581.46875 C 308.683594 581.238281 312.214844 581.058594 313.203125 582.890625 C 314.492188 585.25 311.621094 587.789062 309.722656 588.929688 C 307.199219 590.445312 296.96875 597.492188 296.539062 597.804688 C 296.144531 598.070312 296.042969 598.613281 296.324219 599.011719 C 296.488281 599.257812 296.769531 599.390625 297.035156 599.390625 C 297.199219 599.390625 297.378906 599.339844 297.53125 599.242188 C 297.628906 599.175781 308.140625 591.914062 310.613281 590.429688 C 313.863281 588.484375 316.390625 585.148438 314.722656 582.082031 C 312.925781 578.796875 307.347656 579.753906 307.117188 579.789062 C 306.636719 579.871094 306.339844 580.316406 306.421875 580.792969 C 306.488281 581.238281 306.949219 581.554688 307.414062 581.46875 Z M 349.738281 570.183594 C 349.800781 569.804688 350.101562 569.492188 350.496094 569.457031 L 374.289062 566.71875 C 375.808594 566.539062 376.945312 565.265625 376.945312 563.75 L 376.945312 523.621094 C 376.945312 521.078125 377.9375 518.6875 379.75 516.90625 C 381.550781 515.121094 383.992188 514.132812 386.484375 514.164062 L 523.714844 515.269531 C 526.257812 515.289062 528.632812 516.292969 530.398438 518.109375 C 532.164062 519.925781 533.136719 522.316406 533.105469 524.859375 L 532.378906 580.597656 C 532.3125 585.761719 528.074219 589.933594 522.925781 589.933594 C 522.90625 589.933594 522.890625 589.933594 522.890625 589.933594 L 383.132812 589.359375 C 380.722656 589.339844 378.726562 587.542969 378.464844 585.148438 C 378.347656 584.09375 377.671875 583.171875 376.699219 582.742188 L 350.265625 571.125 C 349.886719 570.960938 349.671875 570.582031 349.738281 570.183594 Z M 353.863281 570.8125 L 377.359375 581.140625 C 378.894531 581.816406 379.964844 583.269531 380.148438 584.953125 C 380.3125 586.46875 381.582031 587.609375 383.117188 587.609375 L 522.875 588.1875 C 522.890625 588.1875 522.890625 588.1875 522.90625 588.1875 C 527.117188 588.1875 530.582031 584.769531 530.648438 580.546875 L 531.371094 524.808594 C 531.40625 522.730469 530.613281 520.78125 529.160156 519.296875 C 527.710938 517.8125 525.777344 516.988281 523.699219 516.96875 L 386.464844 515.863281 C 386.449219 515.863281 386.417969 515.863281 386.402344 515.863281 C 384.355469 515.863281 382.425781 516.65625 380.957031 518.109375 C 379.488281 519.578125 378.660156 521.523438 378.660156 523.605469 L 378.660156 563.734375 C 378.660156 566.140625 376.863281 568.15625 374.472656 568.417969 Z M 392.820312 535.386719 L 512.628906 537.414062 C 512.628906 537.414062 512.644531 537.414062 512.644531 537.414062 C 513.125 537.414062 513.503906 537.035156 513.503906 536.554688 C 513.519531 536.078125 513.125 535.683594 512.644531 535.683594 L 392.835938 533.652344 C 392.390625 533.652344 391.960938 534.03125 391.960938 534.511719 C 391.960938 534.972656 392.339844 535.367188 392.820312 535.386719 Z M 511.441406 551.902344 L 394.46875 550.894531 C 393.992188 550.894531 393.609375 551.273438 393.609375 551.753906 C 393.609375 552.230469 393.992188 552.628906 394.46875 552.628906 L 511.425781 553.632812 C 511.902344 553.632812 512.28125 553.253906 512.28125 552.777344 C 512.296875 552.296875 511.917969 551.902344 511.441406 551.902344 Z M 510.828125 569.738281 L 394.863281 570.152344 C 394.386719 570.152344 394.007812 570.546875 394.007812 571.027344 C 394.007812 571.503906 394.402344 571.882812 394.863281 571.882812 L 510.828125 571.472656 C 511.308594 571.472656 511.6875 571.074219 511.6875 570.597656 C 511.6875 570.117188 511.308594 569.738281 510.828125 569.738281 Z M 301.621094 644.585938 C 301.621094 644.105469 301.242188 643.726562 300.761719 643.726562 L 271.640625 643.726562 C 271.160156 643.726562 270.78125 644.105469 270.78125 644.585938 C 270.78125 645.0625 271.160156 645.441406 271.640625 645.441406 L 300.761719 645.441406 C 301.242188 645.441406 301.621094 645.0625 301.621094 644.585938 Z M 345.296875 658.082031 C 345.066406 657.652344 344.554688 657.503906 344.125 657.734375 C 343.699219 657.964844 343.550781 658.476562 343.78125 658.90625 L 358.695312 686.660156 C 358.84375 686.957031 359.160156 687.121094 359.457031 687.121094 C 359.585938 687.121094 359.734375 687.089844 359.867188 687.023438 C 360.28125 686.792969 360.445312 686.28125 360.214844 685.851562 Z M 172.339844 971.375 C 171.484375 967.117188 166.878906 950.289062 147.707031 945.105469 C 138.054688 942.5 121.339844 941.046875 103.683594 940.78125 L 103.683594 867.652344 L 159.386719 867.652344 C 163.296875 867.652344 166.484375 864.484375 166.484375 860.558594 C 166.484375 856.648438 163.316406 853.464844 159.386719 853.464844 L 30.191406 853.464844 C 26.28125 853.464844 23.09375 856.632812 23.09375 860.558594 C 23.09375 864.46875 26.261719 867.652344 30.191406 867.652344 L 86.207031 867.652344 L 86.207031 940.914062 C 69.410156 941.425781 53.554688 943.027344 43.933594 945.800781 C 24.578125 951.375 21.230469 966.539062 20.652344 971.277344 C 1.792969 973.800781 1.5625 993.304688 1.5625 993.5 C 1.5625 993.980469 1.941406 994.359375 2.421875 994.359375 C 2.898438 994.359375 3.277344 993.980469 3.277344 993.5 C 3.277344 992.675781 3.507812 973.898438 22.980469 972.777344 L 28.390625 972.957031 C 33.175781 973.535156 37.070312 975.300781 39.992188 978.289062 C 45.996094 984.425781 45.867188 993.648438 45.867188 993.75 C 45.847656 994.226562 46.226562 994.625 46.707031 994.640625 C 46.707031 994.640625 46.722656 994.640625 46.722656 994.640625 C 47.183594 994.640625 47.582031 994.261719 47.582031 993.800781 C 47.597656 993.386719 47.746094 983.765625 41.230469 977.101562 C 38.703125 974.511719 35.519531 972.746094 31.742188 971.820312 L 33.574219 966.128906 C 34.316406 963.816406 36.476562 962.234375 38.917969 962.234375 L 89.871094 962.234375 L 89.871094 973.75 L 89.738281 973.75 C 88.238281 973.75 87 974.972656 87 976.488281 L 87 994.078125 C 87 995.582031 88.222656 996.820312 89.738281 996.820312 L 100.265625 996.820312 C 101.769531 996.820312 103.007812 995.597656 103.007812 994.078125 L 103.007812 976.488281 C 103.007812 974.988281 101.785156 973.75 100.265625 973.75 L 99.871094 973.75 L 99.871094 962.234375 L 154.769531 962.234375 C 157.046875 962.234375 159.089844 963.601562 159.949219 965.699219 L 162.324219 971.441406 C 144.488281 974.527344 144.242188 993.304688 144.242188 993.519531 C 144.242188 993.996094 144.621094 994.375 145.097656 994.375 C 145.578125 994.375 145.957031 993.996094 145.957031 993.519531 C 145.957031 992.675781 146.238281 972.746094 167.507812 972.746094 C 173.957031 972.746094 179.054688 974.609375 182.671875 978.304688 C 188.675781 984.441406 188.542969 993.667969 188.542969 993.765625 C 188.527344 994.246094 188.90625 994.640625 189.386719 994.65625 C 189.386719 994.65625 189.402344 994.65625 189.402344 994.65625 C 189.863281 994.65625 190.261719 994.277344 190.261719 993.816406 C 190.277344 993.402344 190.425781 983.78125 183.90625 977.117188 C 180.96875 974.03125 177.078125 972.117188 172.339844 971.375 Z M 186.019531 663.296875 C 180.988281 655.328125 177.785156 656.183594 177.191406 656.433594 C 176.746094 656.613281 176.53125 657.140625 176.714844 657.570312 C 176.910156 658.015625 177.390625 658.230469 177.820312 658.03125 C 177.835938 658.015625 180.261719 657.421875 184.535156 664.203125 C 189.351562 671.828125 205.128906 704.5625 205.277344 704.894531 C 205.425781 705.207031 205.738281 705.386719 206.050781 705.386719 C 206.183594 705.386719 206.296875 705.355469 206.429688 705.304688 C 206.859375 705.089844 207.042969 704.578125 206.84375 704.152344 C 206.214844 702.816406 190.871094 671 186.019531 663.296875 Z M 211.808594 589.785156 C 187.835938 588.632812 175.988281 555.152344 190.671875 518.242188 C 205.605469 480.6875 234.480469 471.808594 259.527344 476.859375 C 284.558594 481.90625 292.644531 501.691406 292.644531 501.691406 C 292.644531 501.691406 291.128906 509.859375 285.089844 520.351562 C 291.226562 517.84375 295.054688 522.628906 295.085938 522.695312 C 295.382812 523.074219 295.316406 523.621094 294.9375 523.902344 C 294.773438 524.015625 294.59375 524.082031 294.410156 524.082031 C 294.148438 524.082031 293.898438 523.96875 293.734375 523.753906 C 293.570312 523.554688 289.675781 518.753906 283.273438 523.339844 C 281.0625 526.804688 278.371094 530.433594 275.105469 534.066406 L 280.699219 534.132812 C 282.234375 529.691406 285.269531 526.65625 288.734375 526.65625 C 293.765625 526.65625 297.859375 533.007812 297.859375 540.8125 C 297.859375 548.617188 293.765625 554.972656 288.734375 554.972656 C 283.703125 554.972656 279.609375 548.617188 279.609375 540.8125 C 279.609375 539.066406 279.824219 537.398438 280.203125 535.847656 L 273.503906 535.765625 C 265.832031 543.785156 255.222656 551.605469 240.570312 557.199219 C 240.570312 557.199219 241.542969 582.476562 256.296875 589.820312 C 256.296875 589.820312 239.21875 589.820312 215.71875 589.820312 C 219.398438 592.0625 224.285156 596.238281 228.476562 603.878906 C 236.050781 617.671875 239.300781 625.511719 239.316406 625.59375 L 272.664062 691.726562 C 272.878906 692.15625 272.710938 692.667969 272.285156 692.882812 C 272.152344 692.949219 272.019531 692.980469 271.886719 692.980469 C 271.574219 692.980469 271.261719 692.796875 271.113281 692.5 L 237.730469 626.335938 C 237.664062 626.203125 234.464844 618.429688 226.941406 604.734375 C 221.628906 595.050781 215.058594 591.1875 211.808594 589.785156 Z M 282.183594 535.039062 C 282.183594 535.1875 282.132812 535.300781 282.070312 535.433594 C 281.589844 537.066406 281.324219 538.898438 281.324219 540.847656 C 281.324219 547.695312 284.644531 553.273438 288.71875 553.273438 C 292.792969 553.273438 296.125 547.695312 296.125 540.847656 C 296.125 534 292.808594 528.421875 288.71875 528.421875 C 285.878906 528.40625 283.421875 531.09375 282.183594 535.039062 Z M 229.53125 542 C 229.53125 551.953125 240.503906 553.15625 240.503906 553.15625 L 240.503906 531.707031 C 240.503906 531.707031 229.53125 532.050781 229.53125 542 Z M 428.492188 654.667969 C 428.625 654.75 428.773438 654.78125 428.921875 654.78125 C 429.003906 654.78125 429.101562 654.765625 429.1875 654.730469 C 429.285156 654.699219 439.664062 651.382812 443.097656 650.394531 C 444.316406 650.046875 448.359375 649.074219 449.136719 651.695312 C 449.265625 652.160156 449.746094 652.421875 450.207031 652.273438 C 450.667969 652.140625 450.933594 651.664062 450.785156 651.203125 C 449.960938 648.394531 446.90625 647.472656 442.601562 648.726562 C 439.515625 649.632812 430.902344 652.371094 429.019531 652.96875 C 428.03125 652.390625 424.746094 650.410156 418.066406 646.070312 C 409.714844 640.640625 402.324219 639.867188 402.011719 639.832031 C 401.546875 639.78125 401.117188 640.128906 401.070312 640.609375 C 401.019531 641.085938 401.367188 641.5 401.84375 641.546875 C 401.910156 641.546875 409.121094 642.308594 417.125 647.503906 C 425.324219 652.851562 428.359375 654.601562 428.492188 654.667969 Z M 234.480469 906.214844 C 234.480469 906.691406 234.859375 907.074219 235.339844 907.074219 L 287.234375 907.074219 C 287.710938 907.074219 288.089844 906.691406 288.089844 906.214844 C 288.089844 905.734375 287.710938 905.355469 287.234375 905.355469 L 235.339844 905.355469 C 234.859375 905.355469 234.480469 905.734375 234.480469 906.214844 Z M 246.726562 813.582031 L 256.046875 803.863281 C 256.378906 803.515625 256.359375 802.972656 256.015625 802.640625 C 255.667969 802.3125 255.125 802.328125 254.792969 802.675781 L 245.46875 812.394531 C 245.140625 812.738281 245.15625 813.285156 245.503906 813.613281 C 245.667969 813.78125 245.882812 813.863281 246.097656 813.863281 C 246.328125 813.84375 246.558594 813.761719 246.726562 813.582031 Z M 172.441406 992.3125 C 172.441406 995.203125 170.097656 997.542969 167.210938 997.542969 C 164.320312 997.542969 161.980469 995.203125 161.980469 992.3125 C 161.980469 989.425781 164.320312 987.082031 167.210938 987.082031 C 170.097656 987.082031 172.441406 989.425781 172.441406 992.3125 Z M 170.722656 992.3125 C 170.722656 990.382812 169.15625 988.816406 167.226562 988.816406 C 165.296875 988.816406 163.726562 990.382812 163.726562 992.3125 C 163.726562 994.246094 165.296875 995.8125 167.226562 995.8125 C 169.15625 995.796875 170.722656 994.226562 170.722656 992.3125 Z M 29.398438 992.3125 C 29.398438 995.203125 27.054688 997.542969 24.167969 997.542969 C 21.28125 997.542969 18.9375 995.203125 18.9375 992.3125 C 18.9375 989.425781 21.296875 987.082031 24.167969 987.082031 C 27.039062 987.082031 29.398438 989.425781 29.398438 992.3125 Z M 27.664062 992.3125 C 27.664062 990.382812 26.097656 988.816406 24.167969 988.816406 C 22.238281 988.816406 20.667969 990.382812 20.667969 992.3125 C 20.667969 994.246094 22.238281 995.8125 24.167969 995.8125 C 26.097656 995.8125 27.664062 994.226562 27.664062 992.3125 Z M 27.664062 992.3125 " fill-opacity="1" fill-rule="nonzero"/></g><g clip-path="url(#37fbfdd177)"><path fill="#2d2c46" d="M 674.535156 925.304688 C 669.535156 925.304688 666.019531 924.183594 664.074219 921.960938 C 660.792969 918.207031 660.859375 910.976562 661.148438 908.621094 L 661.28125 907.816406 L 661.28125 906.710938 C 661.28125 900.257812 660.019531 894.003906 657.527344 888.101562 C 655.125 882.414062 651.699219 877.304688 647.3125 872.90625 C 642.941406 868.519531 637.851562 865.070312 632.167969 862.660156 C 626.285156 860.160156 620.039062 858.894531 613.621094 858.894531 C 607.1875 858.894531 600.953125 860.160156 595.074219 862.660156 C 589.402344 865.070312 584.308594 868.507812 579.925781 872.90625 C 575.554688 877.292969 572.117188 882.402344 569.714844 888.101562 C 567.222656 894.003906 565.960938 900.269531 565.960938 906.710938 L 565.960938 963.757812 C 565.960938 975.597656 556.367188 985.222656 544.566406 985.222656 C 532.765625 985.222656 523.171875 975.597656 523.171875 963.757812 L 523.171875 906.710938 C 523.171875 900.257812 521.910156 894.003906 519.417969 888.101562 C 517.015625 882.414062 513.589844 877.304688 509.207031 872.90625 C 504.835938 868.519531 499.742188 865.070312 494.058594 862.660156 C 488.175781 860.160156 481.929688 858.894531 475.511719 858.894531 C 469.09375 858.894531 462.84375 860.160156 456.964844 862.660156 C 451.292969 865.070312 446.203125 868.507812 441.816406 872.90625 C 437.445312 877.292969 434.007812 882.402344 431.605469 888.101562 C 429.113281 894.003906 427.851562 900.269531 427.851562 906.710938 L 427.851562 933.074219 L 427.800781 934.179688 L 428.074219 935.472656 C 428.429688 937.722656 428.691406 944.675781 425.464844 948.496094 C 423.152344 951.234375 418.730469 952.617188 412.296875 952.617188 L 366.882812 952.617188 L 366.882812 978.953125 L 412.351562 978.953125 C 419.726562 978.953125 426.34375 977.742188 432.011719 975.359375 C 437.511719 973.042969 442.132812 969.628906 445.769531 965.230469 C 455.96875 952.878906 454.824219 937.105469 454.144531 932.058594 L 454.144531 906.710938 C 454.144531 894.871094 463.738281 885.246094 475.539062 885.246094 C 487.335938 885.246094 496.933594 894.871094 496.933594 906.710938 L 496.933594 963.757812 C 496.933594 970.210938 498.191406 976.464844 500.6875 982.363281 C 503.089844 988.054688 506.515625 993.164062 510.898438 997.5625 C 515.269531 1001.945312 520.363281 1005.398438 526.046875 1007.804688 C 531.925781 1010.308594 538.171875 1011.574219 544.59375 1011.574219 C 551.011719 1011.574219 557.257812 1010.308594 563.140625 1007.804688 C 568.808594 1005.398438 573.902344 1001.960938 578.285156 997.5625 C 582.65625 993.175781 586.09375 988.066406 588.496094 982.363281 C 590.992188 976.464844 592.25 970.195312 592.25 963.757812 L 592.25 906.710938 C 592.25 894.871094 601.847656 885.246094 613.644531 885.246094 C 625.210938 885.246094 634.660156 894.503906 635.027344 906.011719 C 634.515625 910.871094 633.753906 926.988281 644.152344 939.078125 C 647.589844 943.09375 651.867188 946.191406 656.871094 948.308594 C 662.054688 950.507812 668 951.617188 674.5625 951.617188 L 696.863281 951.617188 L 696.863281 925.277344 L 674.535156 925.277344 Z M 674.535156 925.304688 " fill-opacity="1" fill-rule="nonzero"/></g><g clip-path="url(#a871095127)"><path fill="#d8d8d8" d="M 674.535156 924.515625 C 669.773438 924.515625 666.453125 923.472656 664.667969 921.433594 C 661.59375 917.917969 661.660156 910.9375 661.921875 908.738281 L 662.066406 907.882812 L 662.066406 906.710938 C 662.066406 900.152344 660.78125 893.792969 658.261719 887.785156 C 655.820312 881.992188 652.328125 876.804688 647.890625 872.339844 C 643.441406 867.875 638.269531 864.386719 632.496094 861.9375 C 626.507812 859.394531 620.171875 858.117188 613.632812 858.117188 C 607.097656 858.117188 600.757812 859.410156 594.773438 861.9375 C 588.996094 864.386719 583.824219 867.890625 579.375 872.339844 C 574.925781 876.804688 571.449219 881.992188 569.007812 887.785156 C 566.472656 893.792969 565.199219 900.152344 565.199219 906.710938 L 565.199219 963.757812 C 565.199219 975.160156 555.957031 984.433594 544.59375 984.433594 C 533.226562 984.433594 523.984375 975.160156 523.984375 963.757812 L 523.984375 906.710938 C 523.984375 900.152344 522.699219 893.792969 520.179688 887.785156 C 517.738281 881.992188 514.246094 876.804688 509.808594 872.339844 C 505.359375 867.875 500.1875 864.386719 494.414062 861.9375 C 488.425781 859.394531 482.085938 858.117188 475.550781 858.117188 C 469.015625 858.117188 462.675781 859.410156 456.6875 861.9375 C 450.914062 864.386719 445.742188 867.890625 441.292969 872.339844 C 436.84375 876.804688 433.363281 881.992188 430.921875 887.785156 C 428.390625 893.792969 427.117188 900.152344 427.117188 906.710938 L 427.117188 933.0625 L 427.0625 934.246094 L 427.351562 935.617188 C 427.679688 937.722656 427.929688 944.425781 424.925781 947.996094 C 422.773438 950.550781 418.546875 951.839844 412.363281 951.839844 L 366.882812 951.839844 L 366.882812 953.417969 L 412.351562 953.417969 C 419.019531 953.417969 423.636719 951.933594 426.105469 949.007812 C 429.519531 944.964844 429.269531 937.773438 428.890625 935.351562 L 428.625 934.128906 L 428.679688 933.101562 L 428.679688 906.722656 C 428.679688 900.375 429.925781 894.226562 432.367188 888.417969 C 434.730469 882.824219 438.101562 877.792969 442.410156 873.484375 C 446.714844 869.167969 451.714844 865.78125 457.292969 863.410156 C 463.082031 860.960938 469.210938 859.710938 475.539062 859.710938 C 481.863281 859.710938 487.992188 860.960938 493.78125 863.410156 C 499.359375 865.78125 504.375 869.167969 508.667969 873.484375 C 512.972656 877.804688 516.34375 882.824219 518.707031 888.417969 C 521.148438 894.226562 522.394531 900.375 522.394531 906.722656 L 522.394531 963.769531 C 522.394531 976.042969 532.347656 986.023438 544.578125 986.023438 C 556.8125 986.023438 566.761719 976.042969 566.761719 963.769531 L 566.761719 906.722656 C 566.761719 900.375 568.007812 894.226562 570.449219 888.417969 C 572.8125 882.824219 576.1875 877.792969 580.492188 873.484375 C 584.796875 869.167969 589.796875 865.78125 595.375 863.410156 C 601.164062 860.960938 607.292969 859.710938 613.621094 859.710938 C 619.945312 859.710938 626.078125 860.960938 631.863281 863.410156 C 637.441406 865.78125 642.457031 869.167969 646.75 873.484375 C 651.054688 877.804688 654.429688 882.824219 656.789062 888.417969 C 659.230469 894.226562 660.480469 900.375 660.480469 906.722656 L 660.480469 907.765625 L 660.347656 908.5 L 660.347656 908.539062 C 660.03125 911.070312 659.992188 918.507812 663.472656 922.488281 C 665.570312 924.882812 669.285156 926.09375 674.523438 926.09375 L 696.824219 926.09375 L 696.824219 924.515625 Z M 674.535156 924.515625 " fill-opacity="1" fill-rule="nonzero"/></g><g clip-path="url(#fc4b0c8a57)"><path fill="#d8d8d8" d="M 657.160156 947.613281 C 652.277344 945.542969 648.101562 942.503906 644.742188 938.589844 C 634.542969 926.699219 635.332031 910.726562 635.800781 906.117188 L 635.800781 906.011719 C 635.617188 900.230469 633.230469 894.820312 629.070312 890.761719 C 624.910156 886.707031 619.421875 884.46875 613.632812 884.46875 C 601.398438 884.46875 591.449219 894.449219 591.449219 906.722656 L 591.449219 963.769531 C 591.449219 970.117188 590.203125 976.265625 587.761719 982.074219 C 585.398438 987.671875 582.027344 992.703125 577.722656 997.007812 C 573.417969 1001.328125 568.414062 1004.710938 562.835938 1007.082031 C 557.046875 1009.53125 550.917969 1010.78125 544.59375 1010.78125 C 538.265625 1010.78125 532.136719 1009.53125 526.347656 1007.082031 C 520.769531 1004.710938 515.753906 1001.328125 511.460938 997.007812 C 507.15625 992.6875 503.785156 987.671875 501.421875 982.074219 C 498.980469 976.265625 497.734375 970.117188 497.734375 963.769531 L 497.734375 906.722656 C 497.734375 894.449219 487.785156 884.46875 475.550781 884.46875 C 463.316406 884.46875 453.367188 894.449219 453.367188 906.722656 L 453.367188 932.125 L 453.382812 932.179688 C 454 936.734375 455.257812 952.550781 445.179688 964.746094 C 441.621094 969.050781 437.09375 972.382812 431.710938 974.648438 C 426.132812 976.992188 419.621094 978.191406 412.351562 978.191406 L 366.882812 978.191406 L 366.882812 979.769531 L 412.351562 979.769531 C 419.832031 979.769531 426.550781 978.53125 432.316406 976.109375 C 437.933594 973.738281 442.65625 970.261719 446.371094 965.757812 C 450.835938 960.347656 453.683594 953.722656 454.8125 946.046875 C 455.71875 939.882812 455.273438 934.640625 454.929688 932.035156 L 454.929688 906.738281 C 454.929688 895.332031 464.171875 886.0625 475.539062 886.0625 C 486.90625 886.0625 496.144531 895.332031 496.144531 906.738281 L 496.144531 963.785156 C 496.144531 970.339844 497.429688 976.703125 499.953125 982.707031 C 502.394531 988.5 505.882812 993.691406 510.320312 998.152344 C 514.769531 1002.617188 519.941406 1006.109375 525.71875 1008.558594 C 531.703125 1011.097656 538.042969 1012.375 544.578125 1012.375 C 551.117188 1012.375 557.457031 1011.085938 563.441406 1008.558594 C 569.214844 1006.109375 574.386719 1002.605469 578.835938 998.152344 C 583.285156 993.691406 586.765625 988.5 589.207031 982.707031 C 591.738281 976.703125 593.011719 970.339844 593.011719 963.785156 L 593.011719 906.738281 C 593.011719 895.332031 602.253906 886.0625 613.621094 886.0625 C 624.789062 886.0625 633.832031 894.820312 634.214844 906.011719 C 633.714844 910.859375 632.953125 927.304688 643.519531 939.632812 C 647.039062 943.742188 651.421875 946.914062 656.527344 949.085938 C 661.804688 951.324219 667.855469 952.457031 674.523438 952.457031 L 696.824219 952.457031 L 696.824219 950.878906 L 674.535156 950.878906 C 668.078125 950.851562 662.238281 949.757812 657.160156 947.613281 Z M 657.160156 947.613281 " fill-opacity="1" fill-rule="nonzero"/></g><path fill="#d8d8d8" d="M 489.332031 876.332031 C 492.167969 877.632812 494.820312 879.320312 497.195312 881.359375 L 498.824219 879.464844 C 496.261719 877.265625 493.429688 875.449219 490.371094 874.050781 Z M 489.332031 876.332031 " fill-opacity="1" fill-rule="nonzero"/><path fill="#d8d8d8" d="M 470.707031 871.167969 L 471.035156 873.644531 C 474.105469 873.222656 477.296875 873.234375 480.367188 873.683594 L 480.722656 871.207031 C 477.441406 870.734375 474.015625 870.71875 470.707031 871.167969 Z M 470.707031 871.167969 " fill-opacity="1" fill-rule="nonzero"/><path fill="#d8d8d8" d="M 441.476562 895.78125 L 443.851562 896.542969 C 444.796875 893.566406 446.175781 890.722656 447.921875 888.117188 L 445.847656 886.71875 C 443.96875 889.523438 442.5 892.566406 441.476562 895.78125 Z M 441.476562 895.78125 " fill-opacity="1" fill-rule="nonzero"/><path fill="#d8d8d8" d="M 452.554688 879.242188 L 454.15625 881.148438 C 456.558594 879.121094 459.210938 877.460938 462.070312 876.183594 L 461.058594 873.894531 C 458 875.277344 455.140625 877.066406 452.554688 879.242188 Z M 452.554688 879.242188 " fill-opacity="1" fill-rule="nonzero"/><path fill="#d8d8d8" d="M 508.824219 945.042969 L 511.316406 945.042969 L 511.316406 954.789062 L 508.824219 954.789062 Z M 508.824219 945.042969 " fill-opacity="1" fill-rule="nonzero"/><path fill="#d8d8d8" d="M 508.835938 964.558594 C 508.917969 967.945312 509.453125 971.289062 510.453125 974.488281 L 512.828125 973.738281 C 511.894531 970.761719 511.398438 967.65625 511.316406 964.507812 Z M 508.835938 964.558594 " fill-opacity="1" fill-rule="nonzero"/><path fill="#d8d8d8" d="M 508.824219 915.808594 L 511.316406 915.808594 L 511.316406 906.722656 C 511.316406 906.5 511.316406 906.261719 511.316406 906.039062 L 508.824219 906.089844 C 508.824219 906.300781 508.824219 906.511719 508.824219 906.722656 Z M 508.824219 915.808594 " fill-opacity="1" fill-rule="nonzero"/><path fill="#d8d8d8" d="M 505.4375 887.011719 L 503.351562 888.394531 C 505.070312 891.011719 506.410156 893.859375 507.339844 896.859375 L 509.730469 896.121094 C 508.734375 892.894531 507.300781 889.828125 505.4375 887.011719 Z M 505.4375 887.011719 " fill-opacity="1" fill-rule="nonzero"/><path fill="#d8d8d8" d="M 508.824219 925.554688 L 511.316406 925.554688 L 511.316406 935.300781 L 508.824219 935.300781 Z M 508.824219 925.554688 " fill-opacity="1" fill-rule="nonzero"/><path fill="#d8d8d8" d="M 383.617188 964.558594 L 393.332031 964.558594 L 393.332031 967.0625 L 383.617188 967.0625 Z M 383.617188 964.558594 " fill-opacity="1" fill-rule="nonzero"/><g clip-path="url(#d09abc3b7c)"><path fill="#d8d8d8" d="M 366.882812 964.558594 L 373.890625 964.558594 L 373.890625 967.0625 L 366.882812 967.0625 Z M 366.882812 964.558594 " fill-opacity="1" fill-rule="nonzero"/></g><path fill="#d8d8d8" d="M 442.277344 925.226562 L 439.78125 925.226562 L 439.78125 933.207031 L 439.808594 933.324219 C 439.808594 933.324219 439.925781 933.984375 440.03125 935.074219 L 442.511719 934.824219 C 442.421875 933.878906 442.316406 933.230469 442.277344 932.980469 Z M 442.277344 925.226562 " fill-opacity="1" fill-rule="nonzero"/><path fill="#d8d8d8" d="M 442.277344 906.722656 C 442.277344 906.40625 442.277344 906.078125 442.289062 905.761719 L 439.796875 905.695312 C 439.78125 906.039062 439.78125 906.382812 439.78125 906.722656 L 439.78125 915.480469 L 442.277344 915.480469 Z M 442.277344 906.722656 " fill-opacity="1" fill-rule="nonzero"/><path fill="#d8d8d8" d="M 436.699219 953.195312 L 438.851562 954.445312 C 440.464844 951.65625 441.582031 948.441406 442.183594 944.875 L 439.730469 944.453125 C 439.179688 947.730469 438.15625 950.667969 436.699219 953.195312 Z M 436.699219 953.195312 " fill-opacity="1" fill-rule="nonzero"/><path fill="#d8d8d8" d="M 412.363281 964.558594 L 403.042969 964.558594 L 403.042969 967.0625 L 412.363281 967.0625 C 412.496094 967.0625 412.625 967.0625 412.757812 967.0625 L 412.746094 964.558594 C 412.613281 964.546875 412.496094 964.558594 412.363281 964.558594 Z M 412.363281 964.558594 " fill-opacity="1" fill-rule="nonzero"/><path fill="#d8d8d8" d="M 422.078125 963.507812 L 422.652344 965.941406 C 426.171875 965.101562 429.296875 963.742188 431.933594 961.941406 L 430.53125 959.871094 C 428.152344 961.503906 425.304688 962.730469 422.078125 963.507812 Z M 422.078125 963.507812 " fill-opacity="1" fill-rule="nonzero"/><path fill="#d8d8d8" d="M 643.269531 886.628906 L 641.210938 888.039062 C 642.96875 890.644531 644.347656 893.460938 645.304688 896.4375 L 647.679688 895.660156 C 646.632812 892.460938 645.148438 889.417969 643.269531 886.628906 Z M 643.269531 886.628906 " fill-opacity="1" fill-rule="nonzero"/><path fill="#d8d8d8" d="M 649.386719 906.90625 L 649.402344 906.816406 L 649.402344 906.722656 C 649.402344 906.339844 649.402344 905.960938 649.386719 905.578125 L 646.894531 905.65625 C 646.90625 905.984375 646.90625 906.316406 646.90625 906.644531 C 646.855469 907.066406 646.644531 908.726562 646.644531 911.121094 C 646.644531 912.597656 646.722656 914.058594 646.867188 915.492188 L 649.347656 915.230469 C 649.203125 913.886719 649.136719 912.503906 649.136719 911.121094 C 649.136719 908.59375 649.386719 906.921875 649.386719 906.90625 Z M 649.386719 906.90625 " fill-opacity="1" fill-rule="nonzero"/><path fill="#d8d8d8" d="M 627.007812 876.144531 C 629.871094 877.410156 632.535156 879.070312 634.9375 881.085938 L 636.539062 879.160156 C 633.953125 877 631.089844 875.210938 628.019531 873.855469 Z M 627.007812 876.144531 " fill-opacity="1" fill-rule="nonzero"/><path fill="#d8d8d8" d="M 613.632812 870.839844 C 611.863281 870.839844 610.078125 870.96875 608.332031 871.234375 L 608.699219 873.710938 C 610.324219 873.472656 611.980469 873.339844 613.632812 873.339844 C 615.101562 873.339844 616.585938 873.433594 618.03125 873.628906 L 618.359375 871.15625 C 616.796875 870.945312 615.207031 870.839844 613.632812 870.839844 Z M 613.632812 870.839844 " fill-opacity="1" fill-rule="nonzero"/><path fill="#d8d8d8" d="M 516.84375 982.191406 L 514.769531 983.574219 C 516.621094 986.382812 518.867188 988.910156 521.425781 991.09375 L 523.039062 989.1875 C 520.652344 987.15625 518.578125 984.800781 516.84375 982.191406 Z M 516.84375 982.191406 " fill-opacity="1" fill-rule="nonzero"/><path fill="#d8d8d8" d="M 683.921875 937.222656 L 693.632812 937.222656 L 693.632812 939.722656 L 683.921875 939.722656 Z M 683.921875 937.222656 " fill-opacity="1" fill-rule="nonzero"/><path fill="#d8d8d8" d="M 651.644531 924.265625 L 649.363281 925.277344 C 650.804688 928.570312 652.8125 931.347656 655.320312 933.546875 L 656.960938 931.664062 C 654.730469 929.703125 652.945312 927.214844 651.644531 924.265625 Z M 651.644531 924.265625 " fill-opacity="1" fill-rule="nonzero"/><path fill="#d8d8d8" d="M 579.425781 896.226562 L 581.816406 896.964844 C 582.722656 893.976562 584.0625 891.117188 585.765625 888.484375 L 583.679688 887.117188 C 581.828125 889.933594 580.398438 893 579.425781 896.226562 Z M 579.425781 896.226562 " fill-opacity="1" fill-rule="nonzero"/><path fill="#d8d8d8" d="M 664.273438 938.367188 C 667.226562 939.25 670.574219 939.710938 674.195312 939.738281 L 674.207031 937.234375 C 670.808594 937.210938 667.710938 936.789062 664.980469 935.972656 Z M 664.273438 938.367188 " fill-opacity="1" fill-rule="nonzero"/><path fill="#d8d8d8" d="M 590.28125 879.542969 L 591.910156 881.441406 C 594.285156 879.386719 596.925781 877.6875 599.757812 876.382812 L 598.722656 874.105469 C 595.664062 875.5 592.828125 877.332031 590.28125 879.542969 Z M 590.28125 879.542969 " fill-opacity="1" fill-rule="nonzero"/><path fill="#d8d8d8" d="M 549.199219 996.835938 L 549.539062 999.3125 C 552.875 998.851562 556.117188 997.917969 559.1875 996.535156 L 558.164062 994.253906 C 555.316406 995.53125 552.296875 996.402344 549.199219 996.835938 Z M 549.199219 996.835938 " fill-opacity="1" fill-rule="nonzero"/><path fill="#d8d8d8" d="M 529.890625 996.480469 C 532.949219 997.863281 536.191406 998.8125 539.527344 999.285156 L 539.878906 996.8125 C 536.78125 996.363281 533.777344 995.492188 530.929688 994.203125 Z M 529.890625 996.480469 " fill-opacity="1" fill-rule="nonzero"/><path fill="#d8d8d8" d="M 566.066406 989.265625 L 567.679688 991.175781 C 570.253906 989 572.496094 986.472656 574.359375 983.667969 L 572.289062 982.273438 C 570.542969 984.894531 568.453125 987.238281 566.066406 989.265625 Z M 566.066406 989.265625 " fill-opacity="1" fill-rule="nonzero"/><path fill="#d8d8d8" d="M 577.867188 925.671875 L 580.359375 925.671875 L 580.359375 935.417969 L 577.867188 935.417969 Z M 577.867188 925.671875 " fill-opacity="1" fill-rule="nonzero"/><path fill="#d8d8d8" d="M 577.867188 906.722656 L 577.867188 915.929688 L 580.359375 915.929688 L 580.359375 906.722656 C 580.359375 906.550781 580.359375 906.367188 580.359375 906.195312 L 577.867188 906.15625 C 577.867188 906.355469 577.867188 906.539062 577.867188 906.722656 Z M 577.867188 906.722656 " fill-opacity="1" fill-rule="nonzero"/><path fill="#d8d8d8" d="M 576.316406 973.84375 L 578.691406 974.59375 C 579.703125 971.394531 580.253906 968.050781 580.347656 964.664062 L 577.851562 964.601562 C 577.773438 967.761719 577.261719 970.867188 576.316406 973.84375 Z M 576.316406 973.84375 " fill-opacity="1" fill-rule="nonzero"/><path fill="#d8d8d8" d="M 577.867188 945.164062 L 580.359375 945.164062 L 580.359375 954.90625 L 577.867188 954.90625 Z M 577.867188 945.164062 " fill-opacity="1" fill-rule="nonzero"/><path fill="#64bd63" d="M 546.71875 951.113281 C 546.71875 951.113281 531.480469 951.113281 538.160156 970.25 L 546.71875 989.648438 " fill-opacity="1" fill-rule="nonzero"/><path fill="#44873f" d="M 546.71875 951.113281 C 546.71875 951.113281 561.957031 951.113281 555.277344 970.25 L 546.71875 989.648438 " fill-opacity="1" fill-rule="nonzero"/><path fill="#d8d8d8" d="M 553.609375 961.859375 C 553.609375 962.316406 553.566406 962.765625 553.476562 963.210938 C 553.390625 963.65625 553.257812 964.085938 553.085938 964.507812 C 552.910156 964.925781 552.699219 965.324219 552.449219 965.703125 C 552.195312 966.078125 551.910156 966.429688 551.589844 966.75 C 551.269531 967.070312 550.921875 967.355469 550.546875 967.609375 C 550.171875 967.863281 549.773438 968.074219 549.355469 968.25 C 548.9375 968.421875 548.507812 968.554688 548.0625 968.640625 C 547.617188 968.730469 547.171875 968.773438 546.71875 968.773438 C 546.265625 968.773438 545.816406 968.730469 545.375 968.640625 C 544.929688 968.554688 544.5 968.421875 544.082031 968.25 C 543.664062 968.074219 543.265625 967.863281 542.890625 967.609375 C 542.515625 967.355469 542.164062 967.070312 541.847656 966.75 C 541.527344 966.429688 541.238281 966.078125 540.988281 965.703125 C 540.738281 965.324219 540.523438 964.925781 540.351562 964.507812 C 540.179688 964.085938 540.046875 963.65625 539.960938 963.210938 C 539.871094 962.765625 539.828125 962.316406 539.828125 961.859375 C 539.828125 961.40625 539.871094 960.957031 539.960938 960.511719 C 540.046875 960.066406 540.179688 959.632812 540.351562 959.214844 C 540.523438 958.796875 540.738281 958.398438 540.988281 958.019531 C 541.238281 957.640625 541.527344 957.292969 541.847656 956.972656 C 542.164062 956.652344 542.515625 956.363281 542.890625 956.113281 C 543.265625 955.859375 543.664062 955.648438 544.082031 955.472656 C 544.5 955.300781 544.929688 955.167969 545.375 955.082031 C 545.816406 954.992188 546.265625 954.949219 546.71875 954.949219 C 547.171875 954.949219 547.617188 954.992188 548.0625 955.082031 C 548.507812 955.167969 548.9375 955.300781 549.355469 955.472656 C 549.773438 955.648438 550.171875 955.859375 550.546875 956.113281 C 550.921875 956.363281 551.269531 956.652344 551.589844 956.972656 C 551.910156 957.292969 552.195312 957.640625 552.449219 958.019531 C 552.699219 958.398438 552.910156 958.796875 553.085938 959.214844 C 553.257812 959.632812 553.390625 960.066406 553.476562 960.511719 C 553.566406 960.957031 553.609375 961.40625 553.609375 961.859375 Z M 553.609375 961.859375 " fill-opacity="1" fill-rule="nonzero"/><path fill="#5080a8" d="M 683.921875 893.792969 C 683.921875 893.792969 668.683594 893.792969 675.363281 912.925781 L 683.921875 932.324219 " fill-opacity="1" fill-rule="nonzero"/><path fill="#3f617d" d="M 683.921875 893.792969 C 683.921875 893.792969 699.160156 893.792969 692.480469 912.925781 L 683.921875 932.324219 " fill-opacity="1" fill-rule="nonzero"/><path fill="#d8d8d8" d="M 690.8125 904.539062 C 690.8125 904.992188 690.769531 905.441406 690.679688 905.886719 C 690.59375 906.332031 690.460938 906.765625 690.289062 907.183594 C 690.113281 907.601562 689.902344 908 689.652344 908.378906 C 689.398438 908.757812 689.113281 909.105469 688.792969 909.425781 C 688.472656 909.746094 688.125 910.035156 687.75 910.285156 C 687.375 910.539062 686.976562 910.75 686.558594 910.925781 C 686.140625 911.097656 685.710938 911.230469 685.265625 911.316406 C 684.820312 911.40625 684.375 911.449219 683.921875 911.449219 C 683.46875 911.449219 683.019531 911.40625 682.578125 911.316406 C 682.132812 911.230469 681.703125 911.097656 681.285156 910.925781 C 680.867188 910.75 680.46875 910.539062 680.09375 910.285156 C 679.71875 910.035156 679.367188 909.746094 679.050781 909.425781 C 678.730469 909.105469 678.441406 908.757812 678.191406 908.378906 C 677.941406 908 677.726562 907.601562 677.554688 907.183594 C 677.382812 906.765625 677.25 906.332031 677.164062 905.886719 C 677.074219 905.441406 677.03125 904.992188 677.03125 904.539062 C 677.03125 904.082031 677.074219 903.632812 677.164062 903.1875 C 677.25 902.742188 677.382812 902.3125 677.554688 901.890625 C 677.726562 901.472656 677.941406 901.074219 678.191406 900.695312 C 678.441406 900.320312 678.730469 899.96875 679.050781 899.648438 C 679.367188 899.328125 679.71875 899.042969 680.09375 898.789062 C 680.46875 898.535156 680.867188 898.324219 681.285156 898.148438 C 681.703125 897.976562 682.132812 897.84375 682.578125 897.757812 C 683.019531 897.667969 683.46875 897.625 683.921875 897.625 C 684.375 897.625 684.820312 897.667969 685.265625 897.757812 C 685.710938 897.84375 686.140625 897.976562 686.558594 898.148438 C 686.976562 898.324219 687.375 898.535156 687.75 898.789062 C 688.125 899.042969 688.472656 899.328125 688.792969 899.648438 C 689.113281 899.96875 689.398438 900.320312 689.652344 900.695312 C 689.902344 901.074219 690.113281 901.472656 690.289062 901.890625 C 690.460938 902.3125 690.59375 902.742188 690.679688 903.1875 C 690.769531 903.632812 690.8125 904.082031 690.8125 904.539062 Z M 690.8125 904.539062 " fill-opacity="1" fill-rule="nonzero"/><path fill="#f16254" d="M 386.507812 919.972656 C 386.507812 919.972656 371.265625 919.972656 377.949219 939.105469 L 386.507812 958.503906 " fill-opacity="1" fill-rule="nonzero"/><path fill="#c05641" d="M 386.507812 919.972656 C 386.507812 919.972656 401.746094 919.972656 395.0625 939.105469 L 386.507812 958.503906 " fill-opacity="1" fill-rule="nonzero"/><path fill="#d8d8d8" d="M 393.398438 930.71875 C 393.398438 931.171875 393.351562 931.621094 393.265625 932.066406 C 393.175781 932.511719 393.046875 932.941406 392.871094 933.363281 C 392.699219 933.78125 392.488281 934.179688 392.234375 934.558594 C 391.984375 934.933594 391.699219 935.285156 391.378906 935.605469 C 391.058594 935.925781 390.710938 936.214844 390.335938 936.464844 C 389.957031 936.71875 389.5625 936.929688 389.144531 937.105469 C 388.726562 937.277344 388.292969 937.410156 387.851562 937.496094 C 387.40625 937.585938 386.957031 937.628906 386.507812 937.628906 C 386.054688 937.628906 385.605469 937.585938 385.160156 937.496094 C 384.71875 937.410156 384.285156 937.277344 383.867188 937.105469 C 383.449219 936.929688 383.054688 936.71875 382.675781 936.464844 C 382.300781 936.214844 381.953125 935.925781 381.632812 935.605469 C 381.3125 935.285156 381.027344 934.933594 380.777344 934.558594 C 380.523438 934.179688 380.3125 933.78125 380.140625 933.363281 C 379.964844 932.941406 379.835938 932.511719 379.746094 932.066406 C 379.660156 931.621094 379.613281 931.171875 379.613281 930.71875 C 379.613281 930.261719 379.660156 929.8125 379.746094 929.367188 C 379.835938 928.921875 379.964844 928.492188 380.140625 928.070312 C 380.3125 927.652344 380.523438 927.253906 380.777344 926.875 C 381.027344 926.5 381.3125 926.148438 381.632812 925.828125 C 381.953125 925.507812 382.300781 925.21875 382.675781 924.96875 C 383.054688 924.714844 383.449219 924.503906 383.867188 924.328125 C 384.285156 924.15625 384.71875 924.023438 385.160156 923.9375 C 385.605469 923.847656 386.054688 923.804688 386.507812 923.804688 C 386.957031 923.804688 387.40625 923.847656 387.851562 923.9375 C 388.292969 924.023438 388.726562 924.15625 389.144531 924.328125 C 389.5625 924.503906 389.957031 924.714844 390.335938 924.96875 C 390.710938 925.21875 391.058594 925.507812 391.378906 925.828125 C 391.699219 926.148438 391.984375 926.5 392.234375 926.875 C 392.488281 927.253906 392.699219 927.652344 392.871094 928.070312 C 393.046875 928.492188 393.175781 928.921875 393.265625 929.367188 C 393.351562 929.8125 393.398438 930.261719 393.398438 930.71875 Z M 393.398438 930.71875 " fill-opacity="1" fill-rule="nonzero"/><g clip-path="url(#5f00c2fccb)"><path fill="#e1bd2f" d="M 474.605469 827.289062 C 474.605469 827.289062 459.367188 827.289062 466.046875 846.425781 L 474.605469 865.820312 " fill-opacity="1" fill-rule="nonzero"/></g><g clip-path="url(#71b01c6f08)"><path fill="#daa332" d="M 474.605469 827.289062 C 474.605469 827.289062 489.84375 827.289062 483.164062 846.425781 L 474.605469 865.820312 " fill-opacity="1" fill-rule="nonzero"/></g><path fill="#d8d8d8" d="M 481.496094 838.046875 C 481.496094 838.503906 481.453125 838.953125 481.363281 839.398438 C 481.277344 839.84375 481.144531 840.273438 480.972656 840.695312 C 480.800781 841.113281 480.585938 841.511719 480.335938 841.890625 C 480.085938 842.265625 479.796875 842.617188 479.476562 842.9375 C 479.160156 843.257812 478.808594 843.546875 478.433594 843.796875 C 478.058594 844.050781 477.660156 844.261719 477.242188 844.4375 C 476.824219 844.609375 476.394531 844.742188 475.949219 844.828125 C 475.507812 844.917969 475.058594 844.960938 474.605469 844.960938 C 474.152344 844.960938 473.707031 844.917969 473.261719 844.828125 C 472.816406 844.742188 472.386719 844.609375 471.96875 844.4375 C 471.550781 844.261719 471.152344 844.050781 470.777344 843.796875 C 470.402344 843.546875 470.054688 843.257812 469.734375 842.9375 C 469.414062 842.617188 469.128906 842.265625 468.875 841.890625 C 468.625 841.511719 468.414062 841.113281 468.238281 840.695312 C 468.066406 840.273438 467.933594 839.84375 467.847656 839.398438 C 467.757812 838.953125 467.714844 838.503906 467.714844 838.046875 C 467.714844 837.59375 467.757812 837.144531 467.847656 836.699219 C 467.933594 836.253906 468.066406 835.824219 468.238281 835.402344 C 468.414062 834.984375 468.625 834.585938 468.875 834.207031 C 469.128906 833.832031 469.414062 833.480469 469.734375 833.160156 C 470.054688 832.839844 470.402344 832.550781 470.777344 832.300781 C 471.152344 832.046875 471.550781 831.835938 471.96875 831.660156 C 472.386719 831.488281 472.816406 831.355469 473.261719 831.269531 C 473.707031 831.179688 474.152344 831.136719 474.605469 831.136719 C 475.058594 831.136719 475.507812 831.179688 475.949219 831.269531 C 476.394531 831.355469 476.824219 831.488281 477.242188 831.660156 C 477.660156 831.835938 478.058594 832.046875 478.433594 832.300781 C 478.808594 832.550781 479.160156 832.839844 479.476562 833.160156 C 479.796875 833.480469 480.085938 833.832031 480.335938 834.207031 C 480.585938 834.585938 480.800781 834.984375 480.972656 835.402344 C 481.144531 835.824219 481.277344 836.253906 481.363281 836.699219 C 481.453125 837.144531 481.496094 837.59375 481.496094 838.046875 Z M 481.496094 838.046875 " fill-opacity="1" fill-rule="nonzero"/><path fill="#9bd6cf" d="M 614.105469 829.359375 C 614.105469 829.359375 598.867188 829.359375 605.546875 848.492188 L 614.105469 867.890625 " fill-opacity="1" fill-rule="nonzero"/><path fill="#64b0a4" d="M 614.105469 829.359375 C 614.105469 829.359375 629.34375 829.359375 622.664062 848.492188 L 614.105469 867.890625 " fill-opacity="1" fill-rule="nonzero"/><path fill="#d8d8d8" d="M 620.996094 840.101562 C 620.996094 840.558594 620.953125 841.007812 620.863281 841.453125 C 620.777344 841.898438 620.644531 842.328125 620.472656 842.75 C 620.300781 843.167969 620.085938 843.566406 619.835938 843.945312 C 619.585938 844.320312 619.296875 844.671875 618.976562 844.992188 C 618.660156 845.3125 618.308594 845.597656 617.933594 845.851562 C 617.558594 846.105469 617.160156 846.316406 616.742188 846.492188 C 616.324219 846.664062 615.894531 846.796875 615.449219 846.882812 C 615.007812 846.972656 614.558594 847.015625 614.105469 847.015625 C 613.652344 847.015625 613.207031 846.972656 612.761719 846.882812 C 612.316406 846.796875 611.886719 846.664062 611.46875 846.492188 C 611.050781 846.316406 610.652344 846.105469 610.277344 845.851562 C 609.902344 845.597656 609.554688 845.3125 609.234375 844.992188 C 608.914062 844.671875 608.628906 844.320312 608.375 843.945312 C 608.125 843.566406 607.914062 843.167969 607.738281 842.75 C 607.566406 842.328125 607.433594 841.898438 607.347656 841.453125 C 607.257812 841.007812 607.214844 840.558594 607.214844 840.101562 C 607.214844 839.648438 607.257812 839.199219 607.347656 838.753906 C 607.4375 838.308594 607.566406 837.875 607.738281 837.457031 C 607.914062 837.039062 608.125 836.640625 608.375 836.261719 C 608.628906 835.882812 608.914062 835.535156 609.234375 835.214844 C 609.554688 834.894531 609.902344 834.605469 610.277344 834.355469 C 610.652344 834.101562 611.050781 833.890625 611.46875 833.714844 C 611.886719 833.542969 612.316406 833.410156 612.761719 833.324219 C 613.207031 833.234375 613.652344 833.191406 614.105469 833.191406 C 614.558594 833.191406 615.007812 833.234375 615.449219 833.324219 C 615.894531 833.410156 616.324219 833.542969 616.742188 833.714844 C 617.160156 833.890625 617.558594 834.101562 617.933594 834.355469 C 618.308594 834.605469 618.660156 834.894531 618.976562 835.214844 C 619.296875 835.535156 619.585938 835.882812 619.835938 836.261719 C 620.085938 836.640625 620.300781 837.039062 620.472656 837.457031 C 620.644531 837.875 620.777344 838.308594 620.863281 838.753906 C 620.953125 839.199219 620.996094 839.648438 620.996094 840.101562 Z M 620.996094 840.101562 " fill-opacity="1" fill-rule="nonzero"/></svg>