<svg xmlns="http://www.w3.org/2000/svg" xmlns:xlink="http://www.w3.org/1999/xlink" width="500" zoomAndPan="magnify" viewBox="0 0 375 374.999991" height="500" preserveAspectRatio="xMidYMid meet" version="1.0"><defs><clipPath id="2f6b520bf6"><path d="M 42.585938 20.410156 L 332.085938 20.410156 L 332.085938 273 L 42.585938 273 Z M 42.585938 20.410156 " clip-rule="nonzero"/></clipPath><clipPath id="5c079fe642"><path d="M 42.585938 30.160156 L 42.585938 344.839844 C 42.585938 350.226562 46.953125 354.589844 52.335938 354.589844 L 322.664062 354.589844 C 328.046875 354.589844 332.414062 350.226562 332.414062 344.839844 L 332.414062 30.160156 C 332.414062 24.773438 328.046875 20.410156 322.664062 20.410156 L 52.335938 20.410156 C 46.953125 20.410156 42.585938 24.773438 42.585938 30.160156 Z M 42.585938 30.160156 " clip-rule="nonzero"/></clipPath><clipPath id="d970893bbd"><path d="M 42.585938 185 L 332.085938 185 L 332.085938 354.910156 L 42.585938 354.910156 Z M 42.585938 185 " clip-rule="nonzero"/></clipPath><clipPath id="49fae21423"><path d="M 42.585938 30.160156 L 42.585938 344.839844 C 42.585938 350.226562 46.953125 354.589844 52.335938 354.589844 L 322.664062 354.589844 C 328.046875 354.589844 332.414062 350.226562 332.414062 344.839844 L 332.414062 30.160156 C 332.414062 24.773438 328.046875 20.410156 322.664062 20.410156 L 52.335938 20.410156 C 46.953125 20.410156 42.585938 24.773438 42.585938 30.160156 Z M 42.585938 30.160156 " clip-rule="nonzero"/></clipPath><clipPath id="7b05d14088"><path d="M 185 20.410156 L 190 20.410156 L 190 354.910156 L 185 354.910156 Z M 185 20.410156 " clip-rule="nonzero"/></clipPath><clipPath id="ec3fc6c419"><path d="M 42.585938 30.160156 L 42.585938 344.839844 C 42.585938 350.226562 46.953125 354.589844 52.335938 354.589844 L 322.664062 354.589844 C 328.046875 354.589844 332.414062 350.226562 332.414062 344.839844 L 332.414062 30.160156 C 332.414062 24.773438 328.046875 20.410156 322.664062 20.410156 L 52.335938 20.410156 C 46.953125 20.410156 42.585938 24.773438 42.585938 30.160156 Z M 42.585938 30.160156 " clip-rule="nonzero"/></clipPath><clipPath id="12ca5c1bb3"><path d="M 44 22 L 331 22 L 331 353 L 44 353 Z M 44 22 " clip-rule="nonzero"/></clipPath><clipPath id="79d849b40e"><path d="M 42.585938 30.160156 L 42.585938 344.839844 C 42.585938 350.226562 46.953125 354.589844 52.335938 354.589844 L 322.664062 354.589844 C 328.046875 354.589844 332.414062 350.226562 332.414062 344.839844 L 332.414062 30.160156 C 332.414062 24.773438 328.046875 20.410156 322.664062 20.410156 L 52.335938 20.410156 C 46.953125 20.410156 42.585938 24.773438 42.585938 30.160156 Z M 42.585938 30.160156 " clip-rule="nonzero"/></clipPath></defs><g clip-path="url(#2f6b520bf6)"><g clip-path="url(#5c079fe642)"><path fill="#634e6b" d="M 256.867188 147.433594 L 187.492188 27.28125 L 118.179688 147.320312 L 118.113281 147.445312 L 51 263.6875 L 115.039062 226.710938 L 186.359375 185.53125 C 187.035156 185.140625 187.890625 185.113281 188.601562 185.53125 L 259.921875 226.710938 L 323.964844 263.6875 L 256.847656 147.445312 L 256.847656 147.433594 Z M 189.445312 21.652344 L 260.769531 145.183594 L 260.777344 145.183594 L 332.101562 268.71875 C 332.726562 269.800781 332.347656 271.1875 331.273438 271.804688 C 330.503906 272.25 329.585938 272.195312 328.890625 271.738281 L 257.691406 230.632812 L 187.492188 190.097656 L 117.289062 230.632812 L 45.96875 271.8125 C 44.886719 272.429688 43.507812 272.0625 42.890625 270.988281 C 42.484375 270.265625 42.511719 269.414062 42.890625 268.738281 L 114.214844 145.203125 L 114.289062 145.082031 L 185.542969 21.667969 C 186.160156 20.597656 187.539062 20.21875 188.621094 20.84375 C 188.980469 21.050781 189.265625 21.335938 189.457031 21.667969 Z M 189.445312 21.652344 " fill-opacity="1" fill-rule="evenodd"/></g></g><g clip-path="url(#d970893bbd)"><g clip-path="url(#49fae21423)"><path fill="#634e6b" d="M 257.691406 230.632812 L 187.492188 190.097656 L 117.289062 230.632812 L 49.347656 269.859375 L 117.289062 309.085938 L 187.492188 349.621094 L 257.691406 309.085938 L 325.644531 269.859375 Z M 188.609375 185.550781 L 259.933594 226.730469 L 331.265625 267.914062 C 332.335938 268.53125 332.71875 269.90625 332.101562 270.988281 C 331.890625 271.347656 331.597656 271.625 331.265625 271.8125 L 259.933594 312.996094 L 188.609375 354.175781 C 187.898438 354.59375 187.035156 354.566406 186.371094 354.175781 L 115.046875 312.996094 L 43.71875 271.8125 C 42.644531 271.195312 42.265625 269.820312 42.890625 268.738281 C 43.101562 268.378906 43.394531 268.101562 43.71875 267.914062 L 115.046875 226.730469 L 186.371094 185.550781 C 187.09375 185.132812 187.945312 185.160156 188.609375 185.550781 Z M 188.609375 185.550781 " fill-opacity="1" fill-rule="evenodd"/></g></g><g clip-path="url(#7b05d14088)"><g clip-path="url(#ec3fc6c419)"><path fill="#634e6b" d="M 185.230469 22.769531 C 185.230469 21.519531 186.246094 20.511719 187.5 20.511719 C 188.753906 20.511719 189.769531 21.527344 189.769531 22.769531 L 189.769531 352.210938 C 189.769531 353.464844 188.753906 354.480469 187.5 354.480469 C 186.257812 354.480469 185.230469 353.464844 185.230469 352.210938 Z M 185.230469 22.769531 " fill-opacity="1" fill-rule="evenodd"/></g></g><g clip-path="url(#12ca5c1bb3)"><g clip-path="url(#79d849b40e)"><path fill="#634e6b" d="M 187.492188 75.152344 L 251.910156 186.726562 L 297.269531 212.917969 L 187.492188 22.769531 L 116.167969 146.316406 L 57.9375 247.179688 L 44.847656 269.859375 L 71.027344 284.980469 L 97.210938 269.859375 L 156.523438 235.617188 L 187.492188 217.730469 L 277.78125 269.859375 L 187.492188 321.984375 L 129.648438 288.578125 L 103.46875 303.703125 L 122.945312 314.949219 L 187.492188 352.210938 L 258.824219 311.039062 L 330.144531 269.859375 L 284.785156 243.667969 L 187.492188 187.496094 L 116.167969 228.675781 L 90.195312 243.667969 Z M 187.492188 75.152344 " fill-opacity="1" fill-rule="evenodd"/></g></g></svg>